<?xml version="1.0" encoding="UTF-8"?>
<svg width="27px" height="27px" viewBox="0 0 27 27" version="1.1" xmlns="http://www.w3.org/2000/svg" xmlns:xlink="http://www.w3.org/1999/xlink">
    <!-- Generator: Sketch 52.6 (67491) - http://www.bohemiancoding.com/sketch -->
    <title>Address-icon</title>
    <desc>Created with Sketch.</desc>
    <g id="Final-design" stroke="none" stroke-width="1" fill="none" fill-rule="evenodd">
        <g id="Detail-screen-1" transform="translate(-29.000000, -434.000000)">
            <g id="Address-icon" transform="translate(30.000000, 435.000000)">
                <path d="M12.5062836,5 C9.29007991,5 6.66666667,7.63540925 6.66666667,10.8789899 C6.66666667,11.2717672 6.70450436,11.6645446 6.78017974,12.0446517 C6.78017974,12.0699921 6.7927923,12.0953326 6.7927923,12.1333433 C7.43603305,15.0348275 11.9639434,19.393389 12.1531319,19.5707723 C12.2540324,19.6721342 12.380158,19.7101449 12.5062836,19.7101449 C12.6324093,19.7101449 12.7585349,19.659464 12.8594354,19.5707723 C13.0486239,19.3807188 17.5513091,15.0348275 18.1945498,12.1966945 C18.1945498,12.171354 18.2071624,12.1460136 18.2071624,12.1206731 C18.2954504,11.7152255 18.333288,11.2971077 18.333288,10.8789899 C18.3459006,7.63540925 15.7224874,5 12.5062836,5 L12.5062836,5 Z M17.1981573,11.9306195 L17.1981573,11.9686302 C16.7188799,14.0718896 13.5783515,17.3914916 12.5062836,18.4684617 C11.4342157,17.3914916 8.28107481,14.0718896 7.8017974,11.9179493 C7.8017974,11.8926088 7.8017974,11.8799386 7.78918483,11.8545981 C7.72612201,11.525172 7.68828432,11.1957458 7.68828432,10.8663196 C7.68828432,8.20556991 9.84503271,6.02628918 12.4936711,6.02628918 C15.1423094,6.02628918 17.3116704,8.19289967 17.3116704,10.8663196 C17.3116704,11.2337565 17.2738327,11.5885231 17.1981573,11.9306195 Z M12.5062836,8.30693181 C11.4216032,8.30693181 10.5513363,9.19384838 10.5513363,10.2708185 C10.5513363,11.3477886 11.4342157,12.2347052 12.5062836,12.2347052 C13.5783515,12.2347052 14.461231,11.3604589 14.461231,10.2708185 C14.461231,9.18117814 13.5909641,8.30693181 12.5062836,8.30693181 Z M12.5062836,11.208416 C11.9891685,11.208416 11.5729539,10.7902982 11.5729539,10.2708185 C11.5729539,9.7513388 11.9891685,9.33322099 12.5062836,9.33322099 C13.0233987,9.33322099 13.4396133,9.7513388 13.4396133,10.2708185 C13.4396133,10.7902982 13.0233987,11.208416 12.5062836,11.208416 Z" id="placeholder-copy" fill="#000000"></path>
                <path d="M12.5,25 C19.3868739,25 25,19.3868739 25,12.5 C25,5.61312608 19.3868739,0 12.5,0 C5.61312608,0 0,5.61312608 0,12.5 C0,19.3868739 5.61312608,25 12.5,25 L12.5,25 Z" id="Shape" stroke="#000000" stroke-width="1.2"></path>
            </g>
        </g>
    </g>
</svg>