<?xml version="1.0" encoding="UTF-8"?>
<svg width="24px" height="21px" viewBox="0 0 24 21" version="1.1" xmlns="http://www.w3.org/2000/svg" xmlns:xlink="http://www.w3.org/1999/xlink">
    <!-- Generator: Sketch 52.6 (67491) - http://www.bohemiancoding.com/sketch -->
    <title>Group</title>
    <desc>Created with Sketch.</desc>
    <g id="Final-design" stroke="none" stroke-width="1" fill="none" fill-rule="evenodd">
        <g id="menu-screen-copy-3" transform="translate(-35.000000, -682.000000)" stroke="#000000">
            <g id="Group" transform="translate(35.000000, 683.000000)">
                <path d="M11.6801627,0.0523560209 L11.6801627,17.1204188" id="Line-5" stroke-linecap="round"></path>
                <path d="M2.67492711,1.83246073 L21.4183826,1.83246073" id="Line-6" stroke-linecap="round"></path>
                <path d="M8.03394627,9.84293194 L8.67514275,9.84293194 C8.84660473,12.565445 7.50900007,13.9267016 4.66232876,13.9267016 C1.81565745,13.9267016 0.498888936,12.565445 0.712023209,9.84293194 L1.35574662,9.84293194 L4.78605947,1.83246073 L8.03394627,9.84293194 Z" id="Combined-Shape" stroke-linejoin="round"></path>
                <path d="M22.0125383,9.84293194 L22.6537348,9.84293194 C22.8251968,12.565445 21.4875921,13.9267016 18.6409208,13.9267016 C15.7942495,13.9267016 14.477481,12.565445 14.6906152,9.84293194 L15.3343386,9.84293194 L18.7646515,1.83246073 L22.0125383,9.84293194 Z" id="Combined-Shape" stroke-linejoin="round"></path>
                <path d="M7.9816498,19.5 L15.4804615,19.5 C15.2824639,17.9133932 14.0840401,17.1492147 11.7030832,17.1492147 C9.32076765,17.1492147 8.14350421,17.9118046 7.9816498,19.5 Z" id="Triangle-Copy"></path>
            </g>
        </g>
    </g>
</svg>