<?xml version="1.0" encoding="UTF-8"?>
<svg width="30px" height="30px" viewBox="0 0 30 30" version="1.1" xmlns="http://www.w3.org/2000/svg" xmlns:xlink="http://www.w3.org/1999/xlink">
    <!-- Generator: Sketch 52.6 (67491) - http://www.bohemiancoding.com/sketch -->
    <title>Battery-icon</title>
    <desc>Created with Sketch.</desc>
    <g id="Final-design" stroke="none" stroke-width="1" fill="none" fill-rule="evenodd">
        <g id="Service-Providers--new" transform="translate(-206.000000, -247.000000)">
            <g id="Group-4" transform="translate(13.000000, 111.000000)">
                <g id="Group" transform="translate(46.000000, 136.000000)">
                    <g id="Battery-icon" transform="translate(147.000000, 0.000000)">
                        <circle id="Oval-Copy-10" stroke="#2181F2" cx="15" cy="15" r="14.5"></circle>
                        <g id="Group-17" transform="translate(7.868852, 8.360656)" fill="#000000">
                            <path d="M7.01992766,7.84052704 C7.66994313,6.65578184 8.2823774,5.54000593 8.89481167,4.42395742 C8.86725213,4.40542022 8.83913583,4.38715563 8.81157628,4.36889103 C8.1966366,4.91492063 7.58141854,5.4598598 6.96731399,6.00670722 C6.02527873,6.84606075 5.07934616,7.6815978 4.14872444,8.53267339 C4.03653762,8.6349006 4.00675104,8.82327127 3.93882652,8.97156887 C4.09026481,9.03426823 4.23864093,9.14031192 4.39397653,9.15094355 C4.78315067,9.17793153 5.17538699,9.162393 5.5662314,9.16293821 C6.11630873,9.16348342 6.66610768,9.16321082 7.28271764,9.16321082 C6.73765114,10.2348246 6.225155,11.2423759 5.71265887,12.2501999 C5.84822955,12.2395683 5.92673249,12.1894088 5.9935435,12.126982 C6.76938637,11.4023956 7.54244545,10.6753557 8.31689642,9.94995141 C8.83635203,9.4633499 9.36555092,8.9865622 9.87053082,8.48605779 C9.97854195,8.37892367 10.0829342,8.15865811 10.039507,8.04607188 C9.9980285,7.93975558 9.76418996,7.86260812 9.6082976,7.84925043 C9.27034523,7.8203542 8.9279388,7.84052704 8.58748102,7.84052704 L7.01992766,7.84052704 Z M7.00266815,13.1656105 C5.0587461,13.1656105 3.11482404,13.1702448 1.17090199,13.1634296 C0.363045508,13.160431 0.00282280434,12.7948665 0.0019876667,11.9950408 C-0.00107450466,9.59692679 -0.000517746228,7.19881277 0.00310118356,4.80097137 C0.00421470042,4.04885172 0.397007772,3.66747608 1.17619119,3.66693087 C5.0640353,3.6639322 8.95160103,3.66338699 12.8394451,3.66611305 C13.639507,3.66665826 14.0239487,4.04612566 14.0247838,4.82686893 C14.0272892,7.22471033 14.0270109,9.62282435 14.0239487,12.0209384 C14.0228352,12.8082242 13.6506422,13.1683365 12.8344343,13.1699722 C10.8902339,13.1737887 8.9465902,13.1713352 7.00266815,13.1713352 L7.00266815,13.1656105 Z" id="Fill-4"></path>
                            <path d="M12.8408649,1.04707922 L12.8408649,2.00992323 C12.5747343,2.00992323 12.3258633,2.01973704 12.0786626,2.00692456 C11.8534538,1.99547511 11.7468346,2.07643906 11.7652076,2.30297456 C11.7718887,2.38884541 11.7657643,2.47580669 11.765486,2.56222276 C11.7640941,3.06954232 11.7640941,3.06954232 11.2947467,3.07172317 C10.7752911,3.07417662 10.7752911,3.07417662 10.7755695,2.57966953 L10.7755695,2.0270974 L9.73610149,2.0270974 L9.73610149,1.05144092 L10.7577532,1.05144092 L10.7577532,-1.4851508e-13 L11.7660427,-1.4851508e-13 C11.7660427,0.260066019 11.7741157,0.504866108 11.7638157,0.749120985 C11.7543508,0.968568726 11.836751,1.06425339 12.0703112,1.05035049 C12.3183471,1.03562978 12.5677749,1.04707922 12.8408649,1.04707922" id="Fill-6"></path>
                            <polygon id="Fill-8" points="1.2256035 1.98467992 1.2256035 1.52779245 1.2256035 1.07090498 4.35848318 1.07090498 4.35848318 1.98467992"></polygon>
                        </g>
                    </g>
                </g>
            </g>
        </g>
    </g>
</svg>