<?xml version="1.0" encoding="UTF-8"?>
<svg width="25px" height="27px" viewBox="0 0 25 27" version="1.1" xmlns="http://www.w3.org/2000/svg" xmlns:xlink="http://www.w3.org/1999/xlink">
    <!-- Generator: Sketch 52.6 (67491) - http://www.bohemiancoding.com/sketch -->
    <title>Group 8</title>
    <desc>Created with Sketch.</desc>
    <defs>
        <polygon id="path-1" points="0 1.33642195e-05 21.7391082 1.33642195e-05 21.7391082 21.6899386 0 21.6899386"></polygon>
    </defs>
    <g id="Final-design" stroke="none" stroke-width="1" fill="none" fill-rule="evenodd">
        <g id="menu-screen-copy-3" transform="translate(-302.000000, -124.000000)">
            <g id="Group-8" transform="translate(302.000000, 124.000000)">
                <g id="Group-3" transform="translate(0.000000, 0.543478)">
                    <mask id="mask-2" fill="white">
                        <use xlink:href="#path-1"></use>
                    </mask>
                    <g id="Clip-2"></g>
                    <path d="M0.974452067,20.6341901 C1.22365021,20.7521516 20.5043879,20.754869 20.7636983,20.6369521 C20.7055194,20.5647853 20.6586556,20.4921285 20.5980711,20.4336823 C19.8027218,19.6665761 19.0021605,18.9048601 18.2103751,18.134101 C17.9386805,17.8695786 17.6923779,17.5773031 17.6456923,17.1794948 C17.537353,16.25576 17.4202379,15.3325151 17.3396516,14.406152 C17.2786663,13.7052432 17.2702913,12.9997906 17.2350098,12.2965208 C17.222492,12.0469218 17.1996392,11.7978573 17.1823102,11.5602414 C15.3323904,11.1963783 13.923178,10.2314816 13.0304036,8.58465342 C12.1354018,6.93359319 12.1149991,5.22056753 12.8212981,3.4668701 C12.4323993,3.3761716 12.0625223,3.28173111 11.6887696,3.20671329 C11.537353,3.17633197 11.4827824,3.11993496 11.4871926,2.96041073 C11.4989531,2.53770046 11.4843861,2.11427744 11.4924047,1.69134444 C11.5030069,1.13280916 11.4301274,0.931098539 10.7628074,0.968295617 C10.3935094,0.988876515 10.2608918,1.10496703 10.2590208,1.48379811 C10.2569717,1.89942534 10.2590208,2.31509711 10.2582635,2.73076889 C10.2575062,3.16452691 10.2571499,3.16523967 9.82370367,3.24818692 C8.15460175,3.56754722 6.80249911,4.39755435 5.79042676,5.76596133 C5.07080809,6.73901016 4.66119476,7.83621258 4.59014166,9.04202156 C4.52211778,10.196601 4.51770759,11.3547888 4.45538578,12.5098138 C4.38157074,13.8773744 4.27376604,15.243064 4.18449305,16.6098227 C4.1434649,17.2384756 3.93213204,17.7766973 3.4568113,18.2172265 C2.67375713,18.9430818 1.91181842,19.6917899 1.1426185,20.4325241 C1.0817222,20.491193 1.03338828,20.5628252 0.974452067,20.6341901 Z M11.3150169,1.33642195e-05 C11.5089318,0.0960130078 11.7188836,0.169293478 11.8932422,0.292823414 C12.2379499,0.5370768 12.4166295,0.886016572 12.4248708,1.31264701 C12.4306174,1.60946632 12.4340476,1.90664202 12.4262518,2.20337224 C12.4227771,2.3359453 12.4621124,2.38744209 12.5966901,2.42976212 C13.1267596,2.5961912 13.6499243,2.78462669 14.2030693,2.97435406 C13.1279179,4.63298735 12.9421998,6.32503118 13.8245946,8.03721044 C14.7075686,9.75041429 16.1879232,10.5978395 18.110188,10.6863106 C18.1297888,11.0368541 18.1509934,11.3756816 18.1672978,11.7147318 C18.215008,12.7071142 18.2409346,13.7009667 18.3137251,14.6914335 C18.3694538,15.4490957 18.4791295,16.2030604 18.576332,16.9572033 C18.5905426,17.0673245 18.6442222,17.1944628 18.7218683,17.2708615 C19.5197122,18.0558758 20.3139032,18.8454784 21.1366491,19.6038979 C21.4511983,19.8938569 21.6460486,20.2212803 21.7391082,20.6254588 L21.7391082,20.8036484 C21.5440351,21.5127539 20.9885736,21.6849742 20.3577379,21.6856424 C14.0355711,21.6921017 7.71340431,21.690498 1.39123753,21.6859542 C1.18721044,21.6858206 0.979396828,21.6456834 0.780002673,21.5969931 C0.341745367,21.4899902 0.0925472202,21.1943737 -2.22736992e-05,20.759101 L-2.22736992e-05,20.6700062 C0.0193112972,20.5844307 0.0213604775,20.4896784 0.0611413043,20.4149724 C0.177053635,20.1974029 0.27011315,19.9494521 0.439927833,19.782132 C1.04670795,19.1842169 1.68600766,18.6194004 2.30347915,18.0321766 C2.55561743,17.7923779 2.80334551,17.5423334 3.01423289,17.2671641 C3.12337402,17.1247461 3.18649768,16.9208972 3.20369298,16.7385201 C3.2931887,15.7889478 3.38410994,14.838529 3.43159747,13.8862839 C3.51017908,12.309796 3.53289825,10.730368 3.62132484,9.15450374 C3.74057823,7.02830096 4.61058892,5.25990289 6.25140324,3.8847247 C7.08394957,3.1869788 8.02643888,2.70292676 9.08279134,2.45003118 C9.27109319,2.40490467 9.32379277,2.32200196 9.31920438,2.13521472 C9.31056219,1.78079562 9.28481379,1.41675428 9.35056575,1.07284836 C9.45649947,0.518812366 9.82080809,0.170540805 10.3802789,0.0422442979 C10.3972069,0.0383686743 10.4095911,0.0145358161 10.424069,1.33642195e-05 L11.3150169,1.33642195e-05 Z" id="Fill-1" fill="#FFFFFF" mask="url(#mask-2)"></path>
                </g>
                <path d="M10.4686386,26.6482537 C10.107181,26.5587135 9.73342837,26.5024056 9.38640413,26.3739309 C7.97714718,25.8521917 7.05862438,24.8581611 6.62598004,23.4183446 C6.55145225,23.1703493 6.69213293,22.8986547 6.92253207,22.8272006 C7.18014968,22.7472381 7.4392819,22.8710353 7.52543656,23.1370723 C7.68144155,23.6186297 7.89415538,24.0665093 8.22763721,24.4527352 C8.8723717,25.1994833 9.68046151,25.6176051 10.6695029,25.6737349 C11.7465699,25.7348539 12.6534658,25.3578493 13.3964273,24.5879366 C13.7920973,24.1779223 14.0488239,23.6819316 14.2130257,23.1369833 C14.2663043,22.9600855 14.386716,22.8500089 14.5727459,22.8197167 C14.7747684,22.7867071 14.9537598,22.840654 15.0487794,23.0237883 C15.1052655,23.1325731 15.1487883,23.2854597 15.1182288,23.3965609 C14.6632662,25.0506949 13.3056397,26.2953047 11.5470421,26.5969797 C11.4546507,26.6128386 11.3626604,26.631103 11.2704918,26.6482537 L10.4686386,26.6482537 Z" id="Fill-4" fill="#FFFFFF"></path>
                <path d="M24.9995707,5.45312948 C25.0320273,8.29851799 22.7209252,10.8522015 19.6055594,10.8780454 C16.5767673,10.9033494 14.1261892,8.43205583 14.1304403,5.41392509 C14.1346914,2.44849422 16.6105735,-0.0336632508 19.5956403,0.000345376767 C22.7320589,0.0361084177 25.0361435,2.57548675 24.9995707,5.45312948" id="Fill-6" fill="#E20303"></path>
                <text id="4" font-family="Geneva" font-size="9" font-weight="normal" letter-spacing="0.108529425" fill="#FFFFFF">
                    <tspan x="16" y="9">4</tspan>
                </text>
            </g>
        </g>
    </g>
</svg>