<?xml version="1.0" encoding="UTF-8"?>
<svg width="21px" height="23px" viewBox="0 0 21 23" version="1.1" xmlns="http://www.w3.org/2000/svg" xmlns:xlink="http://www.w3.org/1999/xlink">
    <!-- Generator: Sketch 52.6 (67491) - http://www.bohemiancoding.com/sketch -->
    <title>Group 8</title>
    <desc>Created with Sketch.</desc>
    <g id="Final-design" stroke="none" stroke-width="1" fill="none" fill-rule="evenodd" opacity="0.600000024">
        <g id="Service-Providers--new" transform="translate(-248.000000, -845.000000)" fill="#000000">
            <g id="Group-7" transform="translate(1.000000, 837.000000)">
                <g id="Group-24" transform="translate(37.000000, 6.000000)">
                    <g id="Group-8" transform="translate(210.000000, 2.000000)">
                        <path d="M8.87071859,7.29866281 C7.67662563,7.29866281 6.48253266,7.29750704 5.2884397,7.29918291 C4.79376633,7.29987638 4.46153769,7.5925196 4.45645226,8.02483869 C4.45136683,8.4555397 4.78365327,8.76303467 5.27451256,8.76361256 C7.66275628,8.76621307 10.051,8.76598191 12.4391859,8.76158995 C12.5701357,8.76141658 12.7114874,8.73870553 12.8297814,8.68571307 C13.1388945,8.54719296 13.2977563,8.19485377 13.2225729,7.86655477 C13.1457136,7.53120553 12.8552663,7.30120553 12.4819497,7.30010754 C11.278206,7.29652462 10.0744623,7.29877839 8.87071859,7.29866281 M0,18.5130698 L0,3.48794422 C0.0180879397,3.43414271 0.0429949749,3.38161256 0.0532236181,3.32630854 C0.225145729,2.39457739 0.930113065,1.62696683 1.86178643,1.49942663 C2.45377638,1.41840653 3.06587688,1.48428593 3.68086683,1.48428593 C3.68641457,1.52069296 3.69467839,1.55692663 3.69722111,1.59344925 C3.80638442,3.17594171 4.99591206,4.33420553 6.5874196,4.35876583 C8.10859799,4.38228593 9.63070101,4.37847186 11.1521106,4.35969045 C12.4118518,4.34408744 13.4767286,3.50996181 13.8160653,2.30523568 C13.8906709,2.04021558 13.9188141,1.7620196 13.9671256,1.49659497 C14.603093,1.49659497 15.2574372,1.41337889 15.8814422,1.5152608 C16.9238392,1.68539146 17.5796859,2.60643166 17.5825176,3.74799447 C17.587603,5.78002714 17.5842513,7.8120598 17.5835,9.84415025 C17.5835,9.93551457 17.5744271,10.0268211 17.5685905,10.1376025 C17.4567111,10.1047784 17.3749975,10.080507 17.2931106,10.056698 C14.6548719,9.28960754 12.2745452,9.77347437 10.1470452,11.5169668 C10.0274221,11.6150347 9.8455603,11.6851327 9.69195729,11.6864618 C8.21862814,11.6990598 6.74506784,11.6961126 5.27162312,11.6922407 C4.96811558,11.6914894 4.72361055,11.7896729 4.56532663,12.0549819 C4.25800503,12.5698814 4.62097739,13.1586352 5.26052764,13.1642985 C6.30055528,13.1734869 7.34069849,13.1670724 8.38078392,13.1672457 L8.73711055,13.1672457 C8.16026131,14.0970121 7.82086683,15.0492005 7.65842211,16.0894593 L7.33295477,16.0894593 C6.62030151,16.0896327 5.90753266,16.082409 5.19499497,16.0926955 C4.76562312,16.0988789 4.45269598,16.4218035 4.45639447,16.8228588 C4.46003518,17.2139166 4.76770352,17.5192734 5.17927638,17.5359744 C5.31392462,17.5414643 5.4489196,17.5378236 5.58374121,17.5378236 C6.24582915,17.5379392 6.90791709,17.5378814 7.59693467,17.5378814 C7.66073367,18.5680849 7.91725879,19.5257633 8.3516005,20.4321829 C8.30438693,20.4531025 8.28791709,20.4667985 8.27144724,20.4667985 C6.22982161,20.4674342 4.1875603,20.4958663 2.14674372,20.4539693 C1.19207035,20.4343211 0.49941206,19.9184392 0.140311558,19.0096503 C0.077379397,18.8504995 0.0459422111,18.6789241 0,18.5130698" id="Fill-1"></path>
                        <g id="Group-5" transform="translate(9.072864, 11.179791)">
                            <path d="M5.17594774,4.05548367 C5.17594774,4.6423304 5.17987739,5.22923492 5.17415628,5.81602387 C5.17161357,6.08081281 5.2503799,6.30006407 5.44235477,6.48909171 C6.01816382,7.05605905 6.5843799,7.63279271 7.15914874,8.20074246 C7.49929447,8.53690075 7.9314402,8.55458417 8.2388196,8.25697111 C8.54874171,7.9569309 8.53146281,7.50375 8.18964121,7.15788317 C7.73663367,6.69944347 7.27149045,6.25261935 6.82894271,5.78435553 C6.7302392,5.6799309 6.65436231,5.50800879 6.65228191,5.36590578 C6.63731457,4.35592839 6.64586734,3.34571985 6.64355578,2.3355691 C6.6424,1.8431495 6.34605829,1.50936055 5.91460603,1.50456407 C5.48563869,1.49988317 5.18178442,1.83176508 5.17727688,2.32378015 C5.17213367,2.90097613 5.17612111,3.47828769 5.17594774,4.05548367 Z M11.7889678,6.46643844 C11.7137844,6.81172739 11.655302,7.16175503 11.5607593,7.50172739 C10.8130281,10.1908204 8.29701307,11.9558103 5.47789497,11.7763756 C2.78105829,11.6048003 0.514055779,9.50665704 0.104043216,6.8027701 C-0.376818593,3.6313706 1.76160352,0.658013819 4.90994523,0.120345477 C8.09151558,-0.422928392 11.0962518,1.68105151 11.6862191,4.86452889 C11.7174251,5.03304146 11.7545834,5.20045603 11.7889678,5.36844849 L11.7889678,6.46643844 Z" id="Fill-3"></path>
                        </g>
                        <path d="M8.7755691,2.91454497 C8.03459925,2.91454497 7.29345603,2.92442688 6.55260176,2.91171332 C5.82619472,2.8992309 5.23374246,2.34393693 5.15052638,1.62469573 C5.06702136,0.902738442 5.54539824,0.212507286 6.2528505,0.0405273869 C6.34542839,0.0179896985 6.44326508,0.00683643216 6.53867462,0.00672085427 C8.04950879,0.00423592965 9.56051633,-0.00853542714 11.0711193,0.00943693467 C11.8274033,0.0184520101 12.398647,0.602582663 12.4649309,1.36533894 C12.5254359,2.06134899 12.0234812,2.73817312 11.3130817,2.88333894 C11.0901897,2.92887663 10.8536595,2.91402487 10.6233128,2.9154696 C10.0073982,2.91916809 9.39148367,2.91674095 8.7755691,2.91674095 L8.7755691,2.91454497 Z" id="Fill-6"></path>
                    </g>
                </g>
            </g>
        </g>
    </g>
</svg>