<?xml version="1.0" encoding="UTF-8"?>
<svg width="30px" height="32px" viewBox="0 0 30 32" version="1.1" xmlns="http://www.w3.org/2000/svg" xmlns:xlink="http://www.w3.org/1999/xlink">
    <!-- Generator: Sketch 52.6 (67491) - http://www.bohemiancoding.com/sketch -->
    <title>calendar-icon</title>
    <desc>Created with Sketch.</desc>
    <g id="Final-design" stroke="none" stroke-width="1" fill="none" fill-rule="evenodd">
        <g id="Available-Slots-1-Copy" transform="translate(-369.000000, -46.000000)" fill="#000000">
            <g id="calendar-icon" transform="translate(369.000000, 46.000000)">
                <path d="M6.99680952,1.80861905 L6.99680952,4.59814286 C6.81871429,4.63290476 6.65490476,4.671 6.48966667,4.69528571 C4.42252381,5.00480952 2.92347619,6.70861905 2.91919048,8.80290476 C2.91014286,13.8695714 2.91585714,18.9357619 2.9182381,24.0019524 C2.91919048,26.501 4.59871429,28.3319524 7.08252381,28.3562381 C12.205381,28.4062381 17.3291905,28.408619 22.4525238,28.3552857 C24.960619,28.3290952 26.6163333,26.5162381 26.615381,24.011 C26.6144286,18.963381 26.6158571,13.9162381 26.6134762,8.86909524 C26.6120476,6.68338095 25.1787143,5.02052381 23.0063333,4.70052381 C22.6715714,4.651 22.4987143,4.55480952 22.5110952,4.17338095 C22.5368095,3.39814286 22.5187143,2.621 22.5187143,1.801 C24.8591905,1.58338095 26.7668095,2.28957143 28.2191905,4.091 C29.1110952,5.19671429 29.5282381,6.48957143 29.5296667,7.9062381 C29.535381,13.6205238 29.5477619,19.3343333 29.5272857,25.0481429 C29.5149048,28.6181429 26.8644286,31.238619 23.2896667,31.2448095 C17.6139524,31.2562381 11.9382381,31.2529048 6.26204762,31.2467143 C2.69633333,31.243381 0.033952381,28.628619 0.0182380952,25.0538571 C-0.00747619048,19.321 -0.00557142857,13.5881429 0.0215714286,7.85528571 C0.0391904762,4.12480952 3.17490476,1.40433333 6.99680952,1.80861905" id="Fill-1"></path>
                <polygon id="Fill-3" points="12.2604762 4.58057143 17.3114286 4.58057143 17.3114286 1.80342857 12.2604762 1.80342857"></polygon>
                <path d="M6.4987619,22.706619 C6.4992381,22.3270952 6.49780952,21.9470952 6.49971429,21.5675714 C6.50161905,21.1280476 6.7287619,20.8951905 7.164,20.8909048 C7.92352381,20.8828095 8.68304762,20.8823333 9.44257143,20.891381 C9.89495238,20.8970952 10.1444762,21.1161429 10.1387619,21.5970952 C10.1297143,22.3375714 10.1249524,23.0780476 10.1401905,23.8180476 C10.1497143,24.2918571 9.91780952,24.5456667 9.47209524,24.5609048 C8.71352381,24.5861429 7.95352381,24.5842381 7.19447619,24.5637619 C6.71828571,24.5509048 6.474,24.2861429 6.49542857,23.7885238 C6.51066667,23.429 6.49828571,23.0675714 6.4987619,22.706619" id="Fill-5"></path>
                <path d="M16.6043333,22.7042857 C16.6038571,23.0842857 16.603381,23.4638095 16.6043333,23.8433333 C16.6052857,24.2752381 16.3905238,24.5419048 15.9624286,24.5566667 C15.1857619,24.582381 14.4071905,24.5871429 13.6300476,24.5671429 C13.1824286,24.5557143 12.9476667,24.3004762 12.9552857,23.8290476 C12.9671905,23.0895238 12.963381,22.3490476 12.9605238,21.6090476 C12.9581429,21.1047619 13.2257619,20.8871429 13.7052857,20.8866667 C14.4262381,20.8852381 15.1471905,20.8847619 15.8681429,20.8885714 C16.3519524,20.8904762 16.6090952,21.1261905 16.6048095,21.6228571 C16.6019524,21.9833333 16.6043333,22.3438095 16.6043333,22.7042857" id="Fill-6"></path>
                <path d="M19.4070476,16.9849048 C19.4070476,16.6039524 19.4108571,16.223 19.4060952,15.8425238 C19.4008571,15.390619 19.6384762,15.1715714 20.0708571,15.1663333 C20.8513333,15.1558571 21.6327619,15.1520476 22.4127619,15.165381 C22.8184762,15.1715714 23.0446667,15.393 23.0441905,15.8139524 C23.0437143,16.5949048 23.0432381,17.375381 23.0422857,18.1563333 C23.0418095,18.5758571 22.8299048,18.7934762 22.4122857,18.7958571 C21.6122857,18.8001429 20.8122857,18.8015714 20.0122857,18.7958571 C19.618,18.7925238 19.4208571,18.5710952 19.4146667,18.1849048 C19.4070476,17.785381 19.4127619,17.3849048 19.4127619,16.9849048 L19.4070476,16.9849048 Z" id="Fill-7"></path>
                <path d="M14.7609524,13.0725714 C14.38,13.0720952 13.9990476,13.0711429 13.6185714,13.0725714 C13.2004762,13.074 12.9714286,12.8630476 12.9657143,12.4492381 C12.9552381,11.6497143 12.9557143,10.8501905 12.9652381,10.0501905 C12.97,9.63161905 13.2052381,9.43352381 13.6219048,9.43495238 C14.3833333,9.43828571 15.1452381,9.43828571 15.9066667,9.43685714 C16.3814286,9.43542857 16.602381,9.68066667 16.6038095,10.1435238 C16.6057143,10.8859048 16.612381,11.6287619 16.6042857,12.3706667 C16.5995238,12.8220952 16.3885714,13.0844762 15.9028571,13.074 C15.5228571,13.0654286 15.1419048,13.0725714 14.7609524,13.0725714" id="Fill-8"></path>
                <path d="M8.35190476,18.7984762 C7.95238095,18.7984762 7.55238095,18.7989524 7.15238095,18.798 C6.73952381,18.7970476 6.50571429,18.6018095 6.50285714,18.1775238 C6.49809524,17.378 6.49714286,16.578 6.50190476,15.7784762 C6.50428571,15.3837143 6.73095238,15.1765714 7.10952381,15.1699048 C7.90857143,15.1565714 8.70904762,15.1560952 9.50857143,15.1694286 C9.91619048,15.1760952 10.1361905,15.4022857 10.1357143,15.8218095 C10.1352381,16.5837143 10.1338095,17.3451429 10.1361905,18.1070476 C10.1371429,18.5765714 9.91619048,18.8108571 9.43714286,18.800381 C9.07619048,18.7918095 8.71380952,18.7984762 8.35190476,18.7984762" id="Fill-9"></path>
                <path d="M21.2695238,13.0716667 C20.8695238,13.0721429 20.4695238,13.0711905 20.0695238,13.0721429 C19.6552381,13.0730952 19.4166667,12.872619 19.4114286,12.4545238 C19.4014286,11.655 19.4052381,10.855 19.4119048,10.055 C19.4147619,9.66547619 19.6290476,9.44785714 20.0147619,9.44214286 C20.8338095,9.43071429 21.6561905,9.3997619 22.4695238,9.465 C22.6738095,9.48119048 22.9990476,9.8197619 23.0152381,10.0297619 C23.0795238,10.8435714 23.047619,11.6659524 23.0380952,12.485 C23.0328571,12.8821429 22.7928571,13.0635714 22.4119048,13.0702381 C22.0314286,13.0764286 21.6504762,13.0711905 21.2695238,13.0716667" id="Fill-10"></path>
                <path d="M10.1367143,11.3022381 C10.1367143,11.6641429 10.1376667,12.0260476 10.1362381,12.3874762 C10.1348095,12.8598571 9.89719048,13.079381 9.42528571,13.0750952 C8.68290476,13.067 7.94052381,13.0689048 7.19766667,13.0736667 C6.72338095,13.0765238 6.49719048,12.8417619 6.49719048,12.374619 C6.49766667,11.6317619 6.50290476,10.889381 6.4962381,10.147 C6.49242857,9.64033333 6.74147619,9.42557143 7.23671429,9.4322381 C7.96052381,9.44319048 8.68385714,9.44128571 9.40766667,9.43366667 C9.90528571,9.42890476 10.148619,9.657 10.138619,10.1603333 C10.1305238,10.5403333 10.1371905,10.9217619 10.1367143,11.3022381" id="Fill-11"></path>
                <path d="M14.747,18.7999048 C14.3665238,18.800381 13.9855714,18.7994286 13.6055714,18.8008571 C13.1860476,18.8022857 12.9665238,18.595619 12.964619,18.1751429 C12.9603333,17.3951429 12.959381,16.6146667 12.9617619,15.8341905 C12.9627143,15.3932381 13.1889048,15.165619 13.6317619,15.1646667 C14.3931905,15.1627619 15.1541429,15.1599048 15.9155714,15.1646667 C16.3855714,15.168 16.6050952,15.4218095 16.6036667,15.8846667 C16.6022381,16.6270476 16.6065238,17.3689524 16.6012857,18.1113333 C16.5979524,18.5760952 16.3622381,18.8094286 15.8889048,18.8008571 C15.5084286,18.7937143 15.1279524,18.7994286 14.747,18.7999048" id="Fill-12"></path>
                <path d="M10.7905238,2.53314286 C10.7900476,3.10361905 10.7895714,3.67409524 10.7900476,4.24504762 C10.7905238,4.70457143 10.5767143,4.93742857 10.103381,4.96742857 C8.51671429,5.06790476 8.45195238,5.01457143 8.45052381,3.44409524 C8.45004762,2.58790476 8.44528571,1.73171429 8.44957143,0.87647619 C8.45290476,0.184571429 8.61290476,0.0231428571 9.27814286,0.00885714286 C10.7881429,-0.0225714286 10.7905238,-0.0206666667 10.791,1.506 C10.791,1.84885714 10.791,2.1907619 10.7905238,2.53314286" id="Fill-13"></path>
                <path d="M21.0765238,2.47642857 C21.077,3.06452381 21.0727143,3.65357143 21.0784286,4.24166667 C21.0836667,4.73833333 20.8489048,4.95404762 20.3498571,4.96880952 C18.7765238,5.01595238 18.7774762,5.025 18.779381,3.43785714 C18.7808095,2.54595238 18.7865238,1.65357143 18.7765238,0.761666667 C18.7703333,0.236428571 19.0055714,0.0183333333 19.534619,0.00738095238 C21.0765238,-0.0230952381 21.0765238,-0.035 21.0760476,1.50880952 C21.0760476,1.83166667 21.0760476,2.15404762 21.0765238,2.47642857" id="Fill-14"></path>
            </g>
        </g>
    </g>
</svg>