<?xml version="1.0" encoding="UTF-8"?>
<svg width="30px" height="30px" viewBox="0 0 30 30" version="1.1" xmlns="http://www.w3.org/2000/svg" xmlns:xlink="http://www.w3.org/1999/xlink">
    <!-- Generator: Sketch 52.6 (67491) - http://www.bohemiancoding.com/sketch -->
    <title>Car-wash-icon</title>
    <desc>Created with Sketch.</desc>
    <g id="Final-design" stroke="none" stroke-width="1" fill="none" fill-rule="evenodd">
        <g id="Service-Providers--new" transform="translate(-63.000000, -247.000000)">
            <g id="Group-4" transform="translate(13.000000, 111.000000)">
                <g id="Group" transform="translate(46.000000, 136.000000)">
                    <g id="Car-wash-icon" transform="translate(4.000000, 0.000000)">
                        <circle id="Oval-Copy-11" stroke="#2181F2" cx="15" cy="15" r="14.5"></circle>
                        <g id="Group-13" transform="translate(7.232143, 7.232143)">
                            <path d="M5.25753046,11.1163054 C5.29010775,10.5367722 4.7908751,9.98189421 4.20019743,9.94318796 C3.80126854,9.91694194 3.39576703,9.91270016 2.99969579,9.95273197 C2.87853115,9.9651922 2.68849697,10.152891 2.68392471,10.2655633 C2.66706454,10.6791369 3.13057648,11.0996034 3.59151653,11.1125939 C4.13818628,11.1282354 4.68599909,11.1163054 5.25753046,11.1163054 Z M10.6196378,11.1163054 C11.2057432,11.1163054 11.7747026,11.1300912 12.3422333,11.1117985 C12.7954577,11.0969523 13.1958154,10.6995505 13.2175336,10.2989673 C13.2309646,10.052944 13.1229451,9.9323184 12.8520393,9.93656018 C12.54627,9.94106707 12.2387861,9.95617842 11.9350172,9.93364396 C11.2674686,9.88459837 10.6536439,10.433909 10.6196378,11.1163054 Z M12.6217121,8.63937062 C12.3268019,7.91508656 12.0338921,7.24355965 11.7841329,6.55851207 C11.685258,6.28624277 11.5418036,6.21492783 11.2451788,6.21678361 C9.19166663,6.22897873 7.13815443,6.22314628 5.08464222,6.22314628 C4.27735417,6.22314628 4.27392498,6.22208583 3.98130092,6.92834232 C3.74811612,7.49196893 3.52493312,8.05877688 3.29089103,8.63937062 L12.6217121,8.63937062 Z M11.9075837,13.6067609 L4.00101875,13.6067609 C4.00101875,13.8906951 3.99701803,14.1632295 4.00216181,14.4352337 C4.0073056,14.7069728 3.86242239,14.8310449 3.57751401,14.8310449 C2.98455021,14.8307798 2.39187219,14.8329007 1.79919416,14.8302496 C1.45141732,14.8283938 1.33282456,14.7136006 1.3325388,14.3824766 C1.33139573,12.6539509 1.33225303,10.9256904 1.33196726,9.19742989 C1.33196726,8.77616804 1.3316815,8.77616804 0.881600547,8.69716488 C0.435806081,8.61869194 0.0831712272,8.30373972 0.00972944646,7.88300809 C-0.0237051385,7.69186285 0.0200170111,7.4795087 0.283778737,7.46757869 C0.737860409,7.44743024 1.19537127,7.44371868 1.64802411,7.47500181 C1.83405757,7.48746204 2.01151806,7.60808768 2.21869818,7.68974196 C2.45016839,7.12823624 2.68335318,6.5616934 2.91682375,5.99515056 C2.97626301,5.85066491 3.03655957,5.70644436 3.0954273,5.5616936 C3.25659914,5.16641266 3.58322932,4.98772764 4.01987929,4.98719742 C6.64492286,4.98322075 9.27025219,4.9842812 11.8955815,4.98587187 C12.323087,4.98613698 12.6768649,5.21333736 12.834036,5.59324184 C13.1220878,6.28836366 13.4009952,6.98666681 13.6956196,7.71333686 C14.2854399,7.30824681 14.9552747,7.48958293 15.5945325,7.46625314 C15.8777263,7.45617891 15.9837454,7.71969954 15.8511501,8.05055843 C15.7028377,8.42012358 15.4090706,8.6319475 14.9955677,8.69716488 C14.6326452,8.7538987 14.5674907,8.81832074 14.5672049,9.17516054 C14.5657761,10.8347572 14.5654903,12.494354 14.5640615,14.1539507 C14.5640615,14.261851 14.5543454,14.3694861 14.55606,14.4773864 C14.5594892,14.7223493 14.4248936,14.8315751 14.1685618,14.83131 C13.5547371,14.8302496 12.9406266,14.8281287 12.3268019,14.8321053 C12.0527527,14.833696 11.9161567,14.707503 11.9092983,14.4628053 C11.9015826,14.1889453 11.9075837,13.9148203 11.9075837,13.6067609 Z" id="Fill-4" fill="#000000"></path>
                            <path d="M11.2267333,0.439358436 C11.697347,0.894653495 12.1868084,1.3356311 12.6319051,1.81018964 C12.9534766,2.1530276 12.9473874,2.69709088 12.6846788,3.01571933 C12.3555682,3.41530648 11.8408798,3.56655086 11.3537381,3.406716 C10.8660165,3.24688114 10.5337163,2.83662099 10.6183861,2.35138943 C10.7297328,1.71491349 10.9248794,1.09015183 11.0837804,0.460704459 C11.1313347,0.453415573 11.178889,0.446387004 11.2267333,0.439358436" id="Fill-8" fill="#2181F2"></path>
                            <path d="M4.77787462,0.439358436 C5.01498572,1.21350602 5.33690513,1.86412758 5.29963643,2.58559119 C5.27821426,3.00041358 4.99708501,3.30219559 4.47356247,3.43109231 C4.00961117,3.54541143 3.50516317,3.39656641 3.27274733,3.08327576 C2.92471049,2.6142349 2.95346901,2.16514235 3.34317637,1.76259583 C3.77308697,1.31861823 4.25787354,0.914792978 4.77787462,0.439358436" id="Fill-10" fill="#2181F2"></path>
                            <path d="M8.03396473,0.446907883 C8.36504642,1.03185991 8.71045939,1.61056412 9.02223773,2.20358625 C9.24393378,2.62453304 8.89559606,3.20505953 8.37499057,3.39275442 C7.84122371,3.58539549 7.1945615,3.40629136 6.96262883,2.95306417 C6.84710121,2.72736172 6.76345336,2.40221482 6.85967763,2.19317322 C7.13782135,1.58921741 7.51452914,1.02144688 7.85263023,0.439358436 C7.91288008,0.441961693 7.97342241,0.444564951 8.03396473,0.446907883" id="Fill-12" fill="#2181F2"></path>
                        </g>
                    </g>
                </g>
            </g>
        </g>
    </g>
</svg>