<?xml version="1.0" encoding="UTF-8"?>
<svg width="25px" height="22px" viewBox="0 0 25 22" version="1.1" xmlns="http://www.w3.org/2000/svg" xmlns:xlink="http://www.w3.org/1999/xlink">
    <!-- Generator: Sketch 52.6 (67491) - http://www.bohemiancoding.com/sketch -->
    <title>Group 16</title>
    <desc>Created with Sketch.</desc>
    <g id="Final-design" stroke="none" stroke-width="1" fill="none" fill-rule="evenodd">
        <g id="menu-screen-copy-3" transform="translate(-39.000000, -591.000000)" fill="#000000" stroke="#000000" stroke-width="0.3">
            <g id="Group-16" transform="translate(51.000000, 602.000000) scale(-1, 1) rotate(-1.000000) translate(-51.000000, -602.000000) translate(39.000000, 592.000000)">
                <path d="M3.17706806,16.3813927 C3.16544503,18.1138534 4.55717277,19.5249529 6.27675393,19.5240105 C7.97151832,19.5230681 9.37141361,18.1303979 9.38376963,16.4330157 C9.39633508,14.7135393 7.98670157,13.2866283 6.27623037,13.2873613 C4.58094241,13.2880942 3.18848168,14.6782513 3.17706806,16.3813927 M2.75706806,16.3324921 C2.79591623,14.3799267 4.39256545,12.8364712 6.33853403,12.8702932 C8.30167539,12.9043246 9.84502618,14.5262094 9.80031414,16.5077801 C9.7565445,18.4436963 8.12167539,20.0001361 6.1886911,19.946 C4.23780105,19.891445 2.71811518,18.2912356 2.75706806,16.3324921" id="Fill-1"></path>
                <path d="M10.3786283,7.08160209 C10.5226073,7.11186387 10.5829215,7.1355288 10.6433403,7.13563351 C13.6971623,7.13950785 16.751089,7.14411518 19.804911,7.14086911 C20.2706702,7.14034555 20.5060628,6.88065969 20.5062723,6.41353927 C20.5067958,5.43626178 20.513288,4.45887958 20.5042827,3.48170681 C20.4990471,2.91416754 20.279466,2.70401047 19.6993613,2.69793717 C18.9489948,2.69008377 18.1985236,2.70327749 17.4482618,2.69343455 C16.7785236,2.68474346 16.178,2.87353927 15.6355916,3.26348691 C14.0489948,4.40380105 12.4605131,5.54139267 10.8743351,6.68223037 C10.725644,6.78924607 10.5882618,6.91196859 10.3786283,7.08160209 Z M15.4047016,7.57573822 C14.0792565,7.57573822 12.7538115,7.58170681 11.4283665,7.57196859 C11.0470052,7.56914136 10.6610366,7.54809424 10.2869005,7.48097382 C10.126377,7.45228272 9.92574869,7.31196859 9.86648168,7.17071204 C9.82606283,7.07458639 9.96438743,6.84401047 10.0832356,6.75060733 C10.6312984,6.3199267 11.196534,5.91050262 11.7631309,5.50411518 C12.9673194,4.64034555 14.178,3.78558115 15.3825026,2.92233508 C15.9831309,2.49175916 16.6450157,2.27092147 17.386377,2.27783246 C18.1537068,2.28495288 18.9211414,2.27615707 19.6884712,2.28045026 C20.5286806,2.28526702 20.9169529,2.65751832 20.9245969,3.48160209 C20.9334974,4.4407644 20.9334974,5.40003141 20.9245969,6.35919372 C20.9169529,7.18537173 20.5323455,7.56652356 19.6950681,7.5712356 C18.2650157,7.57919372 16.8348586,7.57343455 15.4047016,7.57343455 L15.4047016,7.57573822 Z" id="Fill-3"></path>
                <path d="M21.0734241,10.9705236 C21.0726911,10.205288 21.0643141,9.43973822 21.0815916,8.67492147 C21.0842094,8.55774869 21.2055707,8.44329843 21.2719581,8.32748691 C21.3460942,8.43732984 21.4838953,8.5465445 21.4848377,8.65691099 C21.4989738,10.1875916 21.4987644,11.7184817 21.4855707,13.2491623 C21.4845236,13.3647644 21.3586597,13.4793194 21.2908063,13.5943979 C21.218555,13.4675916 21.0873508,13.342356 21.0838953,13.2137696 C21.064,12.4665445 21.0741571,11.718377 21.0734241,10.9705236" id="Fill-5"></path>
                <path d="M6.26364398,14.9552565 C5.46228272,14.9626911 4.81359162,15.6393403 4.83380105,16.4465654 C4.8533822,17.2277173 5.51390576,17.8700209 6.29003141,17.8626911 C7.08542408,17.8552565 7.7412356,17.1703351 7.72071204,16.3683455 C7.70081675,15.587822 7.0412356,14.9481361 6.26364398,14.9552565 M8.13788482,16.4148377 C8.13453403,17.4497068 7.31013613,18.278712 6.28144503,18.2817487 C5.25882723,18.2846806 4.41547644,17.4511728 4.40416754,16.4261466 C4.39264921,15.3815393 5.24982199,14.5255183 6.29620942,14.5366178 C7.32940314,14.5475079 8.1412356,15.3756754 8.13788482,16.4148377" id="Fill-7"></path>
                <g id="Group-11" transform="translate(0.000000, 0.052147)">
                    <path d="M2.31705759,8.06420942 C2.42857592,8.06431414 2.59925654,8.18934031 2.64187435,8.29635602 C2.95894241,9.09468063 2.53894241,10.3633717 1.38428272,10.1966702 C1.09747644,10.1553089 0.799675393,10.1904921 0.479570681,10.1904921 C0.330146597,8.79468063 0.98260733,8.06242932 2.31705759,8.06420942 Z M23.415801,15.4124817 C19.3729738,15.4117487 15.3301466,15.4114346 11.2874241,15.4223246 C10.8904607,15.4233717 10.7206178,15.3209634 10.605644,14.9233717 C9.98281675,12.7699686 7.41286911,11.3280838 5.2527644,11.8930052 C4.10281675,12.1938429 3.12135079,12.7810681 2.49360209,13.8153089 C2.24909948,14.2181361 1.96857592,14.2604398 1.58365445,14.1734241 C0.975277487,14.0358325 0.502816754,13.5280838 0.457790576,12.8858848 C0.418837696,12.3299686 0.439780105,11.7698639 0.435068063,11.211644 C0.433706806,11.0389738 0.434858639,10.866199 0.434858639,10.6560419 C1.24826178,10.4940524 2.11286911,10.8717487 2.71328796,10.1366702 C3.25360209,9.47509948 3.26375916,8.73687958 2.98103665,7.91310995 C4.21957068,7.66295288 5.42532984,7.41824084 6.63182199,7.17740314 C6.78532984,7.14672251 6.94260733,7.13300524 7.09873298,7.11750785 C8.18574869,7.00954974 9.1032356,6.56012565 9.98135079,5.90159162 C11.864911,4.48902618 13.8044921,3.15070157 15.7338115,1.80023037 C15.9450157,1.65248168 16.239466,1.55132984 16.4955916,1.55080628 C18.8022932,1.54598953 21.1090995,1.54389529 23.415801,1.54242932 L23.415801,1.06127749 L20.6185236,1.06127749 C20.9341257,0.639078534 21.3237592,0.481068063 21.7689948,0.480230366 C22.3178953,0.479078534 22.8667958,0.478136126 23.415801,0.477089005 L23.415801,0.0525436222 C22.8870052,0.0529005236 22.3582094,0.0522722513 21.8294136,0.0526910995 C21.1796754,0.0531099476 20.6606178,0.315204188 20.2309843,0.811120419 C20.0961152,0.966931937 19.8399895,1.09520419 19.635801,1.1005445 C18.5546492,1.12881675 17.4719267,1.09646073 16.3908796,1.12598953 C16.1170576,1.1335288 15.8057487,1.23174869 15.5819791,1.38871204 C13.3393613,2.96033508 11.1123455,4.55436649 8.87747644,6.13719372 C8.71025131,6.25572775 8.52648168,6.38787435 8.33297382,6.42640838 C6.16449215,6.85907853 3.99663874,7.29761257 1.81988482,7.68504712 C0.694649215,7.88536126 0.0340209424,8.54598953 0.0137068063,9.69017801 C-0.00388481675,10.6844188 -0.00545549738,11.6796021 0.0143350785,12.6737382 C0.038,13.8589738 0.81904712,14.6056754 2.00794764,14.6500733 C2.34093194,14.6624293 2.53087958,14.571644 2.70941361,14.2650471 C3.59119372,12.7496545 5.19831414,12.0233717 6.91998953,12.2511204 C8.73485864,12.4912251 10.0037592,13.9977173 10.3236545,15.4471414 C10.3524503,15.5774031 10.3953822,15.7045236 10.4292042,15.8238953 L23.415801,15.8238953 L23.415801,15.4124817 Z" id="Fill-9"></path>
                </g>
                <path d="M23.4158115,7.14443979 C23.2803141,7.14433508 23.144712,7.1445445 23.0092147,7.14443979 C22.2159162,7.14391623 22.0489005,6.97899476 22.0468063,6.20307853 C22.0442932,5.31470157 22.041466,4.42632461 22.0475393,3.53805236 C22.0518325,2.91103665 22.2662827,2.69941361 22.9033508,2.69763351 C23.0742408,2.69710995 23.2450262,2.6975288 23.4158115,2.69721466 L23.4158115,2.2801466 C23.2132984,2.28087958 23.0108901,2.28056545 22.808377,2.28150785 C22.0219895,2.28506806 21.6373822,2.68611518 21.632356,3.48998953 C21.6264921,4.41449215 21.6289005,5.33899476 21.6310995,6.26349738 C21.6332984,7.20140314 21.9939267,7.56967539 22.9237696,7.57281675 C23.0877487,7.57334031 23.2518325,7.57302618 23.4158115,7.57334031 L23.4158115,7.14443979 Z" id="Fill-12"></path>
                <path d="M23.4158115,14.3477906 C19.5763351,14.3474764 15.7367539,14.3475812 11.8972775,14.3574241 C11.7420942,14.3578429 11.5872251,14.5070576 11.4322513,14.5869529 C11.5878534,14.6470576 11.7432461,14.7588901 11.8991623,14.759623 C14.2897382,14.7707225 16.6803141,14.7673717 19.0708901,14.7673717 C20.5191623,14.7674764 21.9675393,14.767267 23.4158115,14.767267 L23.4158115,14.3477906 Z" id="Fill-14"></path>
            </g>
        </g>
    </g>
</svg>