<?xml version="1.0" encoding="UTF-8"?>
<svg width="17px" height="20px" viewBox="0 0 17 20" version="1.1" xmlns="http://www.w3.org/2000/svg" xmlns:xlink="http://www.w3.org/1999/xlink">
    <!-- Generator: Sketch 52.6 (67491) - http://www.bohemiancoding.com/sketch -->
    <title>Group 16</title>
    <desc>Created with Sketch.</desc>
    <defs>
        <polygon id="path-1" points="3.09664169e-07 0.0323943662 16.5790744 0.0323943662 16.5790744 19.959744 3.09664169e-07 19.959744"></polygon>
    </defs>
    <g id="Final-design" stroke="none" stroke-width="1" fill="none" fill-rule="evenodd">
        <g id="menu-screen-copy-3" transform="translate(-40.000000, -731.000000)">
            <g id="Group-16" transform="translate(40.000000, 731.000000)">
                <g id="Group-3" transform="translate(0.000000, 0.007847)">
                    <mask id="mask-2" fill="white">
                        <use xlink:href="#path-1"></use>
                    </mask>
                    <g id="Clip-2"></g>
                    <path d="M11.4937787,3.45809658 C10.765167,2.74908249 10.0552676,2.05825755 9.36834608,1.38980684 L9.36834608,3.45809658 L11.4937787,3.45809658 Z M7.18874849,14.9001891 C7.17583099,17.2752394 9.1018672,19.2279155 11.4753481,19.2461449 C13.8530946,19.2644145 15.834503,17.3342736 15.8498753,14.9848169 C15.8656901,12.5618793 13.9494728,10.5943139 11.5602978,10.5803099 C9.14343662,10.5661449 7.20182696,12.4847767 7.18874849,14.9001891 Z M6.75562978,16.6315775 C6.20412072,14.8861449 6.4108008,13.2594648 7.53844668,11.8142334 C8.66923139,10.3650584 10.2008612,9.76099396 12.0170382,9.87254326 L12.0170382,4.19169819 L11.7618672,4.19169819 C10.9033964,4.19173843 10.0448853,4.19137626 9.18641449,4.19193964 C8.72520724,4.19226157 8.63695775,4.10449497 8.6367163,3.63713078 C8.63627364,2.75853924 8.63112274,1.8798672 8.64074044,1.00139638 C8.64279276,0.812181087 8.59723944,0.750933602 8.39868813,0.75145674 C5.91047887,0.758096579 3.42222938,0.755722334 0.933979879,0.756245473 C0.869030181,0.756245473 0.804040241,0.762764588 0.735991952,0.766386318 L0.735991952,16.6315775 L6.75562978,16.6315775 Z M9.65794769e-05,8.69878068 C1.60965795e-05,5.98292555 -2.41448692e-05,3.26698994 1.60965795e-05,0.551134809 C5.63380282e-05,0.143247485 0.106052314,0.0355211268 0.510519115,0.0354808853 C3.28677666,0.0351589537 6.06303421,0.0366881288 8.83929175,0.0323822938 C9.04870825,0.0320603622 9.20492555,0.0944346076 9.35369819,0.245943662 C10.4200563,1.33173843 11.492169,2.41193964 12.5677425,3.48863984 C12.701827,3.62284507 12.7567565,3.76348893 12.7563139,3.9514165 C12.7517264,5.90284507 12.7559517,7.85427364 12.7491509,9.80566197 C12.7485473,9.97153722 12.8017062,10.0297666 12.9543018,10.0806318 C14.9611831,10.7496056 16.1725714,12.1263461 16.5177223,14.2135895 C16.9557505,16.8625634 14.9953883,19.4989014 12.3287082,19.8985795 C10.2369175,20.2121006 8.28939235,19.3065875 7.18436217,17.4979356 C7.11092153,17.3776942 7.02810463,17.3599879 6.90721932,17.3601087 C4.78146479,17.3622817 2.65567002,17.3615573 0.529915493,17.3615976 C0.101022133,17.3615976 0.000338028169,17.2607123 0.00029778672,16.8263863 C0.000136820926,14.117171 0.000217303823,11.407996 9.65794769e-05,8.69878068 Z" id="Fill-1" fill="#000000" mask="url(#mask-2)"></path>
                </g>
                <path d="M6.37517505,5.78733199 C5.07412877,5.78733199 3.77312274,5.78737223 2.4721167,5.78709054 C2.39839437,5.78709054 2.32326358,5.79280483 2.25123139,5.78097384 C2.06934004,5.75111469 1.96197586,5.63602414 1.95078873,5.4552998 C1.93980282,5.27783501 2.01791147,5.14097384 2.20109054,5.09191952 C2.27098994,5.07320724 2.34628169,5.06781489 2.41911871,5.06781489 C5.05473239,5.06672837 7.69030584,5.06680885 10.325839,5.06805634 C10.4054769,5.06809658 10.4896217,5.06853924 10.5637867,5.09280483 C10.7376298,5.149666 10.8269658,5.28262374 10.8092998,5.4625835 C10.7917545,5.64153722 10.6793199,5.75276459 10.499159,5.78185915 C10.4336459,5.79244266 10.3653561,5.78717103 10.2983541,5.78717103 C8.99062777,5.78741247 7.68290141,5.78733199 6.37517505,5.78733199" id="Fill-4" fill="#000000"></path>
                <path d="M6.38731992,7.1105835 C7.68832596,7.1105835 8.98933199,7.11054326 10.290338,7.11070423 C10.3573803,7.11070423 10.4249457,7.10780684 10.4913843,7.11468813 C10.6651469,7.13267606 10.8091308,7.27613682 10.8115453,7.44651911 C10.8140402,7.62519115 10.7324708,7.75943662 10.5526318,7.80732394 C10.4701771,7.82925553 10.3805191,7.83042254 10.2941207,7.83046278 C7.67198793,7.83179074 5.04985513,7.83187123 2.42772233,7.83158954 C2.36760161,7.83158954 2.30627364,7.8310664 2.24764185,7.81975855 C2.06076056,7.78370221 1.93762173,7.62973843 1.94567002,7.44977867 C1.95395976,7.26362173 2.10172636,7.11605634 2.30325553,7.11348089 C2.74579074,7.10788732 3.18844668,7.11074447 3.63106237,7.11062374 C4.54981489,7.11046278 5.4685674,7.1105835 6.38731992,7.1105835" id="Fill-6" fill="#000000"></path>
                <path d="M5.63039437,9.65231791 C4.57103823,9.65231791 3.51172233,9.65247887 2.45232596,9.65203622 C2.3786841,9.65199598 2.30274849,9.65847485 2.23184306,9.64338431 C2.0612998,9.60704628 1.96166197,9.49215694 1.95019316,9.32101006 C1.93884507,9.15179477 2.01168209,9.01710664 2.18234608,8.96459155 C2.2636338,8.93956137 2.35337223,8.93320322 2.43928773,8.93316298 C4.5445996,8.93159356 6.64987123,8.93183501 8.7551831,8.93255936 C8.85550503,8.9325996 8.9573159,8.93030584 9.05578672,8.94591952 C9.24753722,8.97630181 9.37180282,9.1297827 9.36303018,9.30853521 C9.35385513,9.49525553 9.20753722,9.64656338 9.0095493,9.64901811 C8.51349296,9.65517505 8.01727565,9.65207646 7.52113883,9.65227767 C6.89087726,9.65247887 6.26065594,9.65231791 5.63039437,9.65231791" id="Fill-8" fill="#000000"></path>
                <path d="M4.45085714,10.7653441 C5.14804024,10.765505 5.84526358,10.7625674 6.54240644,10.7667928 C6.86212475,10.7687243 7.04679276,11.0373763 6.908,11.2903742 C6.8242173,11.4431308 6.67938833,11.484499 6.51516298,11.4840966 C6.04590744,11.4829296 5.57665191,11.4837746 5.10735614,11.4837746 C4.24260765,11.4837746 3.37781891,11.4838149 2.51303018,11.4836539 C2.44602817,11.4836539 2.37866398,11.4861891 2.31202414,11.480998 C2.09335211,11.4638551 1.94771831,11.3228893 1.94482093,11.1293682 C1.94172233,10.9259879 2.09222535,10.7727485 2.31914688,10.7675976 C2.62735614,10.7605553 2.93584708,10.7653038 3.2442173,10.7652233 C3.64643058,10.7651026 4.04864386,10.7651831 4.45085714,10.7653441" id="Fill-10" fill="#000000"></path>
                <path d="M3.83855131,12.5884507 C4.34708249,12.5883702 4.85561368,12.5878873 5.36414487,12.5885714 C5.53440644,12.5888129 5.68490946,12.6567807 5.71698189,12.8249095 C5.73899396,12.9402817 5.70700201,13.0904628 5.64350101,13.189336 C5.59806841,13.2600805 5.4606841,13.3038229 5.36390342,13.3045875 C4.35360161,13.3124748 3.34317907,13.3110664 2.33283702,13.3077666 C2.0971831,13.3069618 1.94028169,13.149336 1.9454326,12.9390342 C1.95034205,12.7392757 2.10591549,12.5918712 2.33307847,12.5898994 C2.83488934,12.5855533 3.33674044,12.5885312 3.83855131,12.5884507" id="Fill-12" fill="#000000"></path>
                <path d="M13.575171,12.4917586 C13.6802012,12.3728853 13.8622133,12.3589215 13.9812072,12.4567887 C14.1002414,12.5616982 14.1142455,12.7434688 14.0162173,12.8623421 L10.7049095,16.8269698 C10.6488934,16.8899074 10.5718712,16.9248773 10.4948893,16.931839 L10.4808451,16.931839 C10.4038632,16.931839 10.3338431,16.9039115 10.2778672,16.8479356 L8.95472837,15.5264064 C8.84269618,15.4145352 8.84269618,15.2327243 8.95472837,15.1208531 C9.06672032,15.0089819 9.24873239,15.0089819 9.36076459,15.1208531 L10.4598793,16.2186398 L13.575171,12.4917586 Z" id="Fill-14" fill="#000000"></path>
            </g>
        </g>
    </g>
</svg>