<?xml version="1.0" encoding="UTF-8"?>
<svg width="50px" height="50px" viewBox="0 0 50 50" version="1.1" xmlns="http://www.w3.org/2000/svg" xmlns:xlink="http://www.w3.org/1999/xlink">
    <!-- Generator: Sketch 52.6 (67491) - http://www.bohemiancoding.com/sketch -->
    <title>Group Copy 3</title>
    <desc>Created with Sketch.</desc>
    <g id="Final-design" stroke="none" stroke-width="1" fill="none" fill-rule="evenodd">
        <g id="Detail-screen-1" transform="translate(-61.000000, -278.000000)">
            <g id="Group-17" transform="translate(46.000000, 261.000000)">
                <g id="Group-26" transform="translate(15.000000, 17.000000)">
                    <g id="Group-Copy-3">
                        <circle id="Oval-Copy-11" fill="#FFFFFF" cx="25" cy="25" r="25"></circle>
                        <g id="Group-13" transform="translate(12.053571, 12.053571)">
                            <path d="M8.76255077,18.5271757 C8.81684625,17.5612869 7.98479183,16.6364904 7.00032905,16.5719799 C6.33544756,16.5282366 5.65961172,16.5211669 4.99949299,16.5878866 C4.79755191,16.6086537 4.48082828,16.921485 4.47320786,17.1092722 C4.44510757,17.7985615 5.21762746,18.499339 5.98586088,18.5209898 C6.89697713,18.5470591 7.80999849,18.5271757 8.76255077,18.5271757 Z M17.6993963,18.5271757 C18.6762386,18.5271757 19.6245044,18.550152 20.5703888,18.5196642 C21.3257628,18.4949205 21.9930256,17.8325841 22.0292226,17.1649455 C22.0516076,16.7549067 21.8715752,16.553864 21.4200655,16.5609336 C20.91045,16.5684451 20.3979769,16.5936307 19.8916953,16.5560733 C18.7791143,16.4743306 17.7560731,17.3898483 17.6993963,18.5271757 Z M21.0361869,14.398951 C20.5446699,13.1918109 20.0564869,12.0725994 19.6402215,10.9308534 C19.47543,10.4770713 19.2363394,10.358213 18.7419647,10.361306 C15.3194444,10.3816312 11.896924,10.3719105 8.47440371,10.3719105 C7.12892361,10.3719105 7.1232083,10.3701431 6.63550153,11.5472372 C6.2468602,12.4866149 5.87488854,13.4312948 5.48481838,14.398951 L21.0361869,14.398951 Z M19.8459728,22.6779349 L6.66836458,22.6779349 C6.66836458,23.1511586 6.66169672,23.6053826 6.67026969,24.0587229 C6.67884266,24.5116214 6.43737066,24.7184082 5.96252335,24.7184082 C4.97425036,24.7179663 3.98645364,24.7215011 2.99865693,24.7170826 C2.41902887,24.7139896 2.22137427,24.5226677 2.22089799,23.9707943 C2.21899289,21.0899182 2.22042172,18.209484 2.21994544,15.3290498 C2.21994544,14.6269467 2.21946917,14.6269467 1.46933425,14.4952748 C0.726343468,14.3644866 0.138618712,13.8395662 0.0162157441,13.1383468 C-0.0395085642,12.8197714 0.0333616851,12.4658478 0.472964562,12.4459645 C1.22976735,12.4123837 1.99228545,12.4061978 2.74670685,12.4583364 C3.05676262,12.4791034 3.3525301,12.6801461 3.6978303,12.8162366 C4.08361398,11.8803937 4.47225531,10.9361557 4.86137291,9.99191761 C4.96043835,9.75110818 5.06093261,9.51074061 5.1590455,9.26948933 C5.42766524,8.61068776 5.97204887,8.31287941 6.69979881,8.3119957 C11.0748714,8.30536792 15.4504203,8.30713533 19.8259692,8.30978644 C20.5384783,8.3102283 21.1281082,8.68889559 21.3900601,9.32206974 C21.8701464,10.4806061 22.3349919,11.6444447 22.8260326,12.8555614 C23.8090666,12.1804113 24.9254578,12.4826382 25.9908876,12.4437552 C26.4628772,12.4269648 26.6395757,12.8661659 26.4185835,13.4175974 C26.1713962,14.0335393 25.6817843,14.3865792 24.9926128,14.4952748 C24.3877421,14.5898312 24.2791511,14.6972012 24.2786748,15.2919342 C24.2762935,18.0579287 24.2758172,20.8239233 24.2734358,23.5899178 C24.2734358,23.7697516 24.2572424,23.9491436 24.2601001,24.1289774 C24.2658154,24.5372488 24.0414893,24.7192919 23.6142696,24.71885 C22.5912285,24.7170826 21.5677111,24.7135478 20.5446699,24.7201756 C20.0879211,24.7228267 19.8602611,24.5125051 19.8488305,24.1046755 C19.835971,23.6482422 19.8459728,23.1913671 19.8459728,22.6779349 Z" id="Fill-4" fill="#000000"></path>
                            <path d="M18.7112222,0.732264059 C19.4955783,1.49108916 20.3113473,2.22605183 21.0531752,3.01698274 C21.5891277,3.58837934 21.5789789,4.49515147 21.1411313,5.02619888 C20.5926137,5.69217746 19.7347997,5.94425143 18.9228968,5.67786 C18.1100275,5.41146857 17.5561938,4.72770165 17.6973102,3.91898239 C17.882888,2.85818915 18.2081324,1.81691972 18.4729674,0.767840765 C18.5522245,0.755692622 18.6314817,0.743978341 18.7112222,0.732264059" id="Fill-8" fill="#2181F2"></path>
                            <path d="M7.96312436,0.732264059 C8.35830954,2.02251003 8.89484188,3.1068793 8.83272738,4.30931864 C8.79702377,5.0006893 8.32847501,5.50365932 7.45593745,5.71848719 C6.68268528,5.90901905 5.84193861,5.66094401 5.45457889,5.13879293 C4.87451748,4.35705817 4.92244836,3.60857058 5.57196062,2.93765972 C6.28847829,2.19769705 7.09645589,1.52465496 7.96312436,0.732264059" id="Fill-10" fill="#2181F2"></path>
                            <path d="M13.3899412,0.744846472 C13.941744,1.71976652 14.5174323,2.68427354 15.0370629,3.67264375 C15.4065563,4.37422173 14.8259934,5.34176588 13.9583176,5.65459069 C13.0687062,5.97565916 11.9909358,5.67715226 11.6043814,4.92177362 C11.4118353,4.54560287 11.2724223,4.00369137 11.4327961,3.6552887 C11.8963689,2.64869568 12.5242152,1.70241147 13.0877171,0.732264059 C13.1881335,0.736602822 13.2890373,0.740941585 13.3899412,0.744846472" id="Fill-12" fill="#2181F2"></path>
                        </g>
                    </g>
                </g>
            </g>
        </g>
    </g>
</svg>