<?xml version="1.0" encoding="UTF-8"?>
<svg width="50px" height="50px" viewBox="0 0 50 50" version="1.1" xmlns="http://www.w3.org/2000/svg" xmlns:xlink="http://www.w3.org/1999/xlink">
    <!-- Generator: Sketch 52.6 (67491) - http://www.bohemiancoding.com/sketch -->
    <title>Group 4 Copy</title>
    <desc>Created with Sketch.</desc>
    <defs>
        <polygon id="path-1" points="0.0182564277 0.0376948052 4.93256053 0.0376948052 4.93256053 3.74965909 0.0182564277 3.74965909"></polygon>
    </defs>
    <g id="Final-design" stroke="none" stroke-width="1" fill="none" fill-rule="evenodd">
        <g id="Detail-screen-1" transform="translate(-182.000000, -277.000000)">
            <g id="Group-29" transform="translate(167.000000, 261.000000)">
                <g id="Group-27" transform="translate(15.000000, 16.000000)">
                    <g id="Group-4-Copy">
                        <g id="Group-Copy" fill="#FFFFFF">
                            <circle id="Oval-Copy-11" cx="25" cy="25" r="25"></circle>
                        </g>
                        <g id="Group-10" transform="translate(17.857143, 10.714286)">
                            <path d="M8.31419805,8.02793182 C8.34049675,8.24942532 8.35783442,8.44306169 8.38705519,8.63475 C8.70955519,10.757737 10.7167305,12.4561461 12.8611461,12.4144578 C12.9891331,12.4120227 13.1311461,12.371211 13.240237,12.3047825 C13.4694253,12.1653994 13.5598149,11.8895552 13.4903669,11.6421526 C13.4115682,11.3619253 13.202737,11.190789 12.8973799,11.1803669 C12.1314058,11.1546526 11.4318604,10.9403669 10.8295227,10.4564708 C9.99945779,9.78945779 9.60254221,8.90884091 9.56387338,7.85406818 C9.55179545,7.52718506 9.33994481,7.28533442 9.03565909,7.23361364 C8.76945779,7.18841883 8.46186039,7.36013961 8.37020455,7.63091883 C8.32549675,7.76309416 8.32919805,7.91173052 8.31419805,8.02793182 M7.97504221,13.9904318 C7.91192532,14.1180292 7.86731494,14.2043279 7.82611364,14.2922825 C7.10572403,15.8314383 6.38825649,17.3719578 5.66406818,18.9093604 C5.45767208,19.3476721 5.36523701,19.8014708 5.38267208,20.2860487 C5.43634091,21.7721201 6.92757468,22.9793279 8.38569156,22.7089383 C10.1305617,22.3852695 11.0701071,20.5904318 10.3264383,18.9802695 C9.59260714,17.3915357 8.84455519,15.8092305 8.10205519,14.2243929 C8.07156818,14.1593279 8.03358117,14.0977695 7.97504221,13.9904318 M0.000107142857,15.9363409 C0.000107142857,13.0646201 -0.000185064935,10.1928994 0.000301948052,7.32117857 C0.000496753247,6.04413312 0.885496753,5.14296429 2.16487987,5.13945779 C4.5960487,5.13263961 7.02731494,5.13225 9.45858117,5.1398474 C10.7385487,5.14384091 11.6208214,6.04218506 11.6285162,7.32254221 C11.6360162,8.58254221 12.5310487,9.49140584 13.7983539,9.52101623 C15.1625747,9.55286688 15.9800747,10.6110487 15.9729643,11.7443279 C15.9463734,16.0136786 15.9625422,20.283224 15.9621526,24.5527695 C15.9619578,25.8343929 15.0598149,26.7445227 13.7748799,26.7455942 C9.91208766,26.748711 6.04919805,26.7490032 2.18630844,26.7453994 C0.899912338,26.7441331 0.000301948052,25.8342955 0.000204545455,24.5516006 C-8.76623377e-05,21.6797825 0.000107142857,18.8080617 0.000107142857,15.9363409" id="Fill-1" fill="#000000"></path>
                            <g id="Group-5" transform="translate(2.240260, 0.059708)">
                                <mask id="mask-2" fill="white">
                                    <use xlink:href="#path-1"></use>
                                </mask>
                                <g id="Clip-4"></g>
                                <path d="M4.93135714,3.74965909 L0.0435974026,3.74965909 C0.0435974026,3.04748377 -0.0231233766,2.34959416 0.059961039,1.66982143 C0.172363636,0.749659091 1.00476623,0.0679383117 1.93057792,0.0474837662 C2.41875974,0.0367694805 2.92135714,0.0151461039 3.39424675,0.111866883 C4.32317532,0.301996753 4.92414935,1.10907468 4.93067532,2.05933442 C4.93447403,2.61618506 4.93135714,3.17323052 4.93135714,3.74965909" id="Fill-3" fill="#2181F2" mask="url(#mask-2)"></path>
                            </g>
                            <path d="M7.97500325,13.9904123 C8.03363961,14.0978474 8.07162662,14.1593084 8.10211364,14.2243734 C8.84461364,15.809211 9.59256818,17.3915162 10.3263994,18.98025 C11.0700682,20.5904123 10.1305227,22.3853474 8.38575,22.7089188 C6.92753571,22.9793084 5.43630195,21.7721981 5.38263312,20.2860292 C5.36519805,19.8014513 5.45773052,19.3476526 5.66412662,18.9093409 C6.38821753,17.3719383 7.10578247,15.8314188 7.82617208,14.2923604 C7.86737338,14.2043084 7.91198377,14.1181071 7.97500325,13.9904123" id="Fill-6" fill="#FFFFFF"></path>
                            <path d="M8.31419805,8.02793182 C8.32919805,7.91173052 8.32549675,7.76309416 8.37020455,7.63091883 C8.46186039,7.36013961 8.76945779,7.18841883 9.03565909,7.23361364 C9.33994481,7.28533442 9.55179545,7.52718506 9.56387338,7.85406818 C9.60254221,8.90884091 9.99945779,9.78945779 10.8295227,10.4564708 C11.4318604,10.9403669 12.1314058,11.1546526 12.8973799,11.1803669 C13.202737,11.190789 13.4115682,11.3619253 13.4903669,11.6421526 C13.5598149,11.8895552 13.4694253,12.1653994 13.240237,12.3047825 C13.1311461,12.371211 12.9891331,12.4120227 12.8611461,12.4144578 C10.7167305,12.4561461 8.70955519,10.757737 8.38705519,8.63475 C8.35783442,8.44306169 8.34049675,8.24942532 8.31419805,8.02793182" id="Fill-8" fill="#FFFFFF"></path>
                        </g>
                    </g>
                </g>
            </g>
        </g>
    </g>
</svg>