<?xml version="1.0" encoding="UTF-8"?>
<svg width="50px" height="50px" viewBox="0 0 50 50" version="1.1" xmlns="http://www.w3.org/2000/svg" xmlns:xlink="http://www.w3.org/1999/xlink">
    <!-- Generator: Sketch 52.6 (67491) - http://www.bohemiancoding.com/sketch -->
    <title>Battery-icon-2</title>
    <desc>Created with Sketch.</desc>
    <g id="Final-design" stroke="none" stroke-width="1" fill="none" fill-rule="evenodd">
        <g id="Detail-screen-1" transform="translate(-303.000000, -276.000000)">
            <g id="Group-28" transform="translate(288.000000, 261.000000)">
                <g id="Group-27" transform="translate(15.000000, 15.000000)">
                    <g id="Battery-icon-2">
                        <circle id="Oval-Copy-10" fill="#FFFFFF" cx="25" cy="25" r="25"></circle>
                        <g id="Group-17" transform="translate(13.114754, 13.934426)" fill="#000000">
                            <path d="M11.6998794,13.0675451 C12.7832385,11.0929697 13.8039623,9.23334322 14.8246861,7.37326237 C14.7787535,7.34236704 14.731893,7.31192604 14.6859605,7.28148505 C13.661061,8.19153438 12.6356976,9.09976634 11.61219,10.0111787 C10.0421312,11.4101013 8.46557693,12.802663 6.91454074,14.2211223 C6.7275627,14.391501 6.67791841,14.7054521 6.56471086,14.9526148 C6.81710801,15.0571137 7.06440155,15.2338532 7.32329422,15.2515726 C7.97191779,15.2965526 8.62564498,15.270655 9.27705234,15.2715637 C10.1938479,15.2724724 11.1101795,15.272018 12.1378627,15.272018 C11.2294186,17.0580409 10.3752583,18.7372932 9.52109812,20.4169999 C9.74704925,20.3992805 9.87788748,20.3156813 9.98923916,20.2116367 C11.2823106,19.0039927 12.5707424,17.7922595 13.861494,16.5832524 C14.7272534,15.7722498 15.6092515,14.9776037 16.4508847,14.1434296 C16.6309033,13.9648728 16.8048903,13.5977635 16.7325117,13.4101198 C16.6633808,13.232926 16.2736499,13.1043469 16.0138293,13.082084 C15.4505754,13.0339237 14.879898,13.0675451 14.3124684,13.0675451 L11.6998794,13.0675451 Z M11.6711136,21.9426841 C8.43124349,21.9426841 5.1913734,21.950408 1.95150331,21.9390494 C0.605075846,21.9340516 0.00470467391,21.3247775 0.00331277784,19.9917347 C-0.00179084109,15.994878 -0.00086291038,11.9980213 0.00516863926,8.00161895 C0.00702450069,6.7480862 0.66167962,6.11246013 1.96031865,6.11155144 C8.44005883,6.10655367 14.919335,6.10564498 21.3990752,6.11018841 C22.7325117,6.1110971 23.3732478,6.74354276 23.3746397,8.04478154 C23.3788154,12.0411839 23.3783514,16.0380406 23.3732478,20.0348973 C23.371392,21.3470403 22.7510703,21.9472276 21.3907239,21.9499536 C18.1503898,21.9563144 14.9109837,21.9522254 11.6711136,21.9522254 L11.6711136,21.9426841 Z" id="Fill-4"></path>
                            <path d="M21.4014415,1.74513204 L21.4014415,3.34987204 C20.9578906,3.34987204 20.5431055,3.3662284 20.1311043,3.34487427 C19.7557563,3.32579186 19.5780576,3.46073177 19.6086793,3.83829093 C19.6198145,3.98140902 19.6096072,4.12634448 19.6091433,4.27037126 C19.6068234,5.11590386 19.6068234,5.11590386 18.8245779,5.11953861 C17.9588185,5.1236277 17.9588185,5.1236277 17.9592825,4.29944922 L17.9592825,3.37849566 L16.2268358,3.37849566 L16.2268358,1.75240153 L17.9295887,1.75240153 L17.9295887,-2.47525133e-13 L19.6100712,-2.47525133e-13 C19.6100712,0.433443365 19.6235262,0.841443513 19.6063595,1.24853498 C19.5905847,1.61428121 19.7279184,1.77375566 20.1171853,1.75058416 C20.5305785,1.72604963 20.9462914,1.74513204 21.4014415,1.74513204" id="Fill-6"></path>
                            <polygon id="Fill-8" points="2.04267251 3.30779987 2.04267251 2.54632075 2.04267251 1.78484163 7.26413864 1.78484163 7.26413864 3.30779987"></polygon>
                        </g>
                    </g>
                </g>
            </g>
        </g>
    </g>
</svg>