<?xml version="1.0" encoding="UTF-8"?>
<svg width="28px" height="28px" viewBox="0 0 28 28" version="1.1" xmlns="http://www.w3.org/2000/svg" xmlns:xlink="http://www.w3.org/1999/xlink">
    <!-- Generator: Sketch 52.6 (67491) - http://www.bohemiancoding.com/sketch -->
    <title>Direction-icon</title>
    <desc>Created with Sketch.</desc>
    <g id="Final-design" stroke="none" stroke-width="1" fill="none" fill-rule="evenodd">
        <g id="Service-Providers--new" transform="translate(-334.000000, -227.000000)">
            <g id="Direction-icon" transform="translate(333.000000, 226.000000)">
                <path d="M7.48598131,4.48598131 L22.5140187,4.48598131 C24.1708729,4.48598131 25.5140187,5.82912706 25.5140187,7.48598131 L25.5140187,22.5140187 C25.5140187,24.1708729 24.1708729,25.5140187 22.5140187,25.5140187 L7.48598131,25.5140187 C5.82912706,25.5140187 4.48598131,24.1708729 4.48598131,22.5140187 L4.48598131,7.48598131 C4.48598131,5.82912706 5.82912706,4.48598131 7.48598131,4.48598131 Z" id="Rectangle" fill="#2181F2" transform="translate(15.000000, 15.000000) rotate(-315.000000) translate(-15.000000, -15.000000) "></path>
                <g id="Group-4" transform="translate(10.093458, 7.710280)">
                    <path d="M6.78439211,5.40633715 L2,5.40633715 C0.8954305,5.40633715 6.36143579e-14,6.30176765 6.37496286e-14,7.40633715 L6.37496286e-14,13.7075207" id="Path-4" stroke="#FFFFFF" stroke-width="2.5" stroke-linecap="round"></path>
                    <path d="M10.5243205,3.32506173 L13.7852203,6.87490207 C14.1588408,7.28162821 14.1320034,7.91422417 13.7252773,8.28784469 C13.5407581,8.45734491 13.2993322,8.55140187 13.0487775,8.55140187 L6.5269778,8.55140187 C5.97469305,8.55140187 5.5269778,8.10368662 5.5269778,7.55140187 C5.5269778,7.30084714 5.62103475,7.0594213 5.79053498,6.87490207 L9.05143483,3.32506173 C9.42505535,2.91833559 10.0576513,2.89149819 10.4643774,3.26511871 C10.4851968,3.28424344 10.5051957,3.30424241 10.5243205,3.32506173 Z" id="Triangle" fill="#FFFFFF" transform="translate(9.787878, 5.537383) rotate(-270.000000) translate(-9.787878, -5.537383) "></path>
                </g>
            </g>
        </g>
    </g>
</svg>