<?xml version="1.0" encoding="UTF-8"?>
<svg width="20px" height="19px" viewBox="0 0 20 19" version="1.1" xmlns="http://www.w3.org/2000/svg" xmlns:xlink="http://www.w3.org/1999/xlink">
    <!-- Generator: Sketch 52.6 (67491) - http://www.bohemiancoding.com/sketch -->
    <title>Favourite-2</title>
    <desc>Created with Sketch.</desc>
    <g id="Final-design" stroke="none" stroke-width="1" fill="none" fill-rule="evenodd">
        <g id="Service-Providers--new" transform="translate(-364.000000, -320.000000)" stroke="#3CB971">
            <g id="Group-4-Copy-2" transform="translate(13.000000, 309.000000)">
                <path d="M361.002021,29.320545 C361.082723,29.242485 361.177734,29.1503937 361.302575,29.029303 C361.304011,29.0279097 361.304011,29.0279097 361.305448,29.0265163 C361.918451,28.4319247 362.194308,28.1676783 362.54587,27.8433054 C363.159127,27.2782007 363.66681,26.8151141 364.753012,25.827805 C364.788518,25.7955315 364.788518,25.7955315 364.824023,25.7632592 C365.537004,25.1151894 365.885884,24.797549 366.29694,24.4215665 C367.362666,23.4460357 368.00947,22.8003577 368.6125,22.0704877 C369.286735,21.2553335 369.766021,20.4322666 370.058947,19.545369 C370.260941,18.9339836 370.387884,18.2888588 370.444654,17.6047441 C370.516025,16.7446635 370.522486,16.1823989 370.443815,15.6231249 C370.295802,14.5767801 369.884414,13.6903407 369.200557,12.9601267 C368.395537,12.1003009 367.405528,11.6301228 366.218404,11.5305729 C365.43491,11.4646403 364.690743,11.5908319 363.97826,11.9123746 C363.117967,12.3008729 362.396777,12.9163142 361.791266,13.7607776 C361.7383,13.834463 361.684866,13.9134287 361.614675,14.0207727 C361.620232,14.0122745 361.460755,14.2578769 361.41255,14.3305144 L360.986499,14.9725098 L360.573739,14.3218888 C360.546763,14.2799211 360.546763,14.2799211 360.514837,14.2285659 C360.513294,14.2260014 360.513294,14.2260014 360.51174,14.2234044 C360.238959,13.7666632 359.955278,13.3891994 359.639833,13.0746962 C358.072083,11.5124497 356.327431,11.1093406 354.358323,11.880265 C352.678058,12.5378868 351.581611,14.1980809 351.507662,16.1508668 C351.48152,16.8403269 351.522359,17.5352062 351.628785,18.2344727 C351.750103,19.031454 351.972434,19.7612928 352.304883,20.4335568 C352.689578,21.2111852 353.221797,21.9333515 353.958069,22.720898 C354.636475,23.4464874 355.221209,23.9963105 356.552829,25.1950688 C356.559855,25.201394 356.559855,25.201394 356.566882,25.2077197 C356.625269,25.260282 356.625269,25.260282 356.683665,25.3128638 C358.714001,27.1410303 359.817529,28.1585538 361.002021,29.320545 Z" id="Favourite-2"></path>
            </g>
        </g>
    </g>
</svg>