<?xml version="1.0" encoding="UTF-8"?>
<svg width="25px" height="23px" viewBox="0 0 25 23" version="1.1" xmlns="http://www.w3.org/2000/svg" xmlns:xlink="http://www.w3.org/1999/xlink">
    <!-- Generator: Sketch 52.6 (67491) - http://www.bohemiancoding.com/sketch -->
    <title>Combined Shape</title>
    <desc>Created with Sketch.</desc>
    <g id="Final-design" stroke="none" stroke-width="1" fill="none" fill-rule="evenodd" opacity="0.600000024">
        <g id="Service-Providers--new" transform="translate(-139.000000, -845.000000)" fill="#000000">
            <g id="Group-7" transform="translate(1.000000, 837.000000)">
                <g id="Group-24" transform="translate(37.000000, 6.000000)">
                    <path d="M100.999922,10.9041406 C101.010078,6.84164063 103.448359,3.70492188 107.297578,2.90335938 C109.162422,2.51429688 110.875703,3.09945313 112.461641,4.02914063 C113.127266,4.41898438 113.628828,4.39789063 114.303047,4.03070313 C117.728828,2.16898438 120.703047,2.43851563 123.256953,4.76507813 C125.823359,7.10335938 126.501484,11.3103906 124.856953,14.8541406 C123.319453,18.1674219 120.660859,20.4494531 117.743672,22.4728906 C116.698359,23.1986719 115.598359,23.8447656 114.517891,24.5197656 C113.836641,24.9455469 113.131172,25.0439844 112.412422,24.6080469 C109.319453,22.7307031 106.252266,20.8197656 103.912422,17.9807031 C102.215547,15.9236719 101.008516,13.6572656 100.999922,10.9041406" id="Combined-Shape"></path>
                </g>
            </g>
        </g>
    </g>
</svg>