<?xml version="1.0" encoding="UTF-8"?>
<svg width="25px" height="21px" viewBox="0 0 25 21" version="1.1" xmlns="http://www.w3.org/2000/svg" xmlns:xlink="http://www.w3.org/1999/xlink">
    <!-- Generator: Sketch 52.6 (67491) - http://www.bohemiancoding.com/sketch -->
    <title>Home-icon-gray</title>
    <desc>Created with Sketch.</desc>
    <g id="Final-design" stroke="none" stroke-width="1" fill="none" fill-rule="evenodd" opacity="0.600000024">
        <g id="Group-7-Copy" transform="translate(-39.000000, -24.000000)" fill="#000000">
            <g id="Group-24" transform="translate(37.000000, 24.000000)">
                <g id="Group-14">
                    <g id="Home-icon-gray" transform="translate(2.000000, 0.000000)">
                        <g id="Group-3" transform="translate(3.968254, 4.933651)">
                            <path d="M8.47950507,15.872381 C6.05133046,15.872381 3.62315586,15.8739683 1.19458443,15.8715873 C0.393393956,15.8707937 0.106092368,15.5942063 0.10331459,14.7834921 C0.0945844317,12.6088889 0.101330463,10.4342857 0.0969653841,8.26007937 C0.0953780825,7.49896825 0.377917765,6.88785714 0.958076495,6.38349206 C3.20926697,4.42634921 5.44656856,2.45373016 7.691013,0.488650794 C8.24775903,0.000952380952 8.70212411,-0.0125396825 9.25331459,0.469206349 C11.559267,2.48468254 13.8596638,4.50571429 16.1596638,6.52793651 C16.6263305,6.93785714 16.8652194,7.46722222 16.8676003,8.08269841 C16.8763305,10.3521429 16.87514,12.6219841 16.8687908,14.8914286 C16.8672035,15.5596825 16.5441876,15.8692063 15.8600606,15.8703968 C13.3997432,15.8747619 10.9398225,15.872381 8.47950507,15.872381" id="Fill-1"></path>
                        </g>
                        <path d="M12.4341876,2.92333333 C11.399267,3.82968254 10.3746638,4.72571429 9.35085427,5.62373016 C6.99053681,7.69436508 4.63855269,9.77531746 2.26037808,11.8253175 C1.97148919,12.0745238 1.5496638,12.2630159 1.1730765,12.2963492 C0.665536813,12.3415873 0.281806654,12.0138095 0.0925209396,11.5213492 C-0.107875886,10.9987302 0.0163304634,10.5130159 0.474266971,10.105873 C1.57704475,9.12650794 2.68815586,8.15666667 3.79648919,7.18365079 C6.34688602,4.9447619 8.89767967,2.70626984 11.4476797,0.466984127 C12.1460924,-0.146904762 12.7460924,-0.156031746 13.4286321,0.442777778 C17.04014,3.61222222 20.6540289,6.77968254 24.258394,9.95746032 C24.4885527,10.1606349 24.7111717,10.4177778 24.8266479,10.6955556 C25.0389495,11.2050794 24.8246638,11.767381 24.3829971,12.0836508 C23.908394,12.4237302 23.3191082,12.4169841 22.8452987,12.0118254 C21.8452987,11.1566667 20.8631559,10.2796825 19.8738701,9.41142857 C17.5020447,7.33007937 15.1302194,5.24833333 12.7568067,3.1681746 C12.6635527,3.08642857 12.558394,3.01698413 12.4341876,2.92333333" id="Fill-4"></path>
                    </g>
                </g>
            </g>
        </g>
    </g>
</svg>