<?xml version="1.0" encoding="UTF-8"?>
<svg width="24px" height="23px" viewBox="0 0 24 23" version="1.1" xmlns="http://www.w3.org/2000/svg" xmlns:xlink="http://www.w3.org/1999/xlink">
    <!-- Generator: Sketch 52.6 (67491) - http://www.bohemiancoding.com/sketch -->
    <title>Group 6</title>
    <desc>Created with Sketch.</desc>
    <defs>
        <filter x="-20.0%" y="-21.4%" width="140.0%" height="144.2%" filterUnits="objectBoundingBox" id="filter-1">
            <feOffset dx="0" dy="1" in="SourceAlpha" result="shadowOffsetOuter1"></feOffset>
            <feGaussianBlur stdDeviation="0.5" in="shadowOffsetOuter1" result="shadowBlurOuter1"></feGaussianBlur>
            <feColorMatrix values="0 0 0 0 0   0 0 0 0 0   0 0 0 0 0  0 0 0 0.25 0" type="matrix" in="shadowBlurOuter1" result="shadowMatrixOuter1"></feColorMatrix>
            <feMerge>
                <feMergeNode in="shadowMatrixOuter1"></feMergeNode>
                <feMergeNode in="SourceGraphic"></feMergeNode>
            </feMerge>
        </filter>
        <polygon id="path-2" points="0 0.0711661983 19.9598413 0.0711661983 19.9598413 18.7301365 0 18.7301365"></polygon>
    </defs>
    <g id="Final-design" stroke="none" stroke-width="1" fill="none" fill-rule="evenodd">
        <g id="menu-screen-copy-3" transform="translate(-41.000000, -860.000000)">
            <g id="Group-6" transform="translate(53.500000, 870.428571) rotate(-270.000000) translate(-53.500000, -870.428571) translate(43.500000, 858.928571)">
                <g id="Group-3" filter="url(#filter-1)" transform="translate(0.000000, 4.112937)">
                    <mask id="mask-3" fill="white">
                        <use xlink:href="#path-2"></use>
                    </mask>
                    <g id="Clip-2"></g>
                    <path d="M10.0057222,16.6646111 C13.4285,16.7915159 16.8207222,14.3089762 17.7029444,10.6968333 C18.4991349,7.43730952 17.2296905,4.2132619 14.4238175,2.24786508 C14.250881,2.1266746 14.0730238,2.0119127 13.9071508,1.88175397 C13.4488968,1.52238889 13.3489762,0.94397619 13.6569921,0.476039683 C13.9228651,0.0719920635 14.4596111,-0.0563412698 14.9588175,0.2135 C16.2715952,0.923103175 17.336754,1.91484921 18.1828651,3.14048413 C19.5030238,5.05262698 20.1192937,7.18143651 19.9246111,9.48953175 C19.6195317,13.1073095 17.8345317,15.8146111 14.6477063,17.5556429 C12.7398492,18.5978651 10.6836587,18.9558016 8.53175397,18.5919921 C4.52421429,17.914373 1.79397619,15.6575476 0.501595238,11.8066746 C-0.959357143,7.4535 0.861198413,2.7032619 4.7903254,0.319690476 C5.13056349,0.113261905 5.47318254,-0.0106269841 5.87318254,0.152626984 C6.54278571,0.426039683 6.72199206,1.30389683 6.17215079,1.77151587 C5.69056349,2.18111905 5.14469048,2.51635714 4.67223016,2.93524603 C1.49746825,5.74969048 1.15437302,10.5611984 3.87254762,13.8310397 C5.20897619,15.4387381 6.93445238,16.336754 8.97580159,16.6571508 C9.31127778,16.7098492 9.66207143,16.6646111 10.0057222,16.6646111" id="Fill-1" fill="#000000" mask="url(#mask-3)"></path>
                </g>
                <path d="M10.9829048,6.42495238 C10.9829048,8.2221746 10.9614762,10.0197143 10.9963968,11.8163016 C11.0063968,12.3329683 10.5867937,12.9021746 9.9891746,12.9196349 C9.43877778,12.9356667 8.9844127,12.4338413 8.98457143,11.8255873 C8.9857619,8.31050794 8.9875873,4.79542857 8.98957143,1.28034921 C8.98965079,1.16146032 8.98615873,1.04185714 8.99719048,0.92384127 C9.04719048,0.391301587 9.49988889,-0.0217142857 10.0034603,0.000904761905 C10.5578254,0.0255873016 10.9698095,0.438603175 10.9711587,0.993761905 C10.9754444,2.80415873 10.972746,4.61447619 10.972746,6.42495238 L10.9829048,6.42495238 Z" id="Fill-4" fill="#FEC909"></path>
            </g>
        </g>
    </g>
</svg>