<?xml version="1.0" encoding="UTF-8"?>
<svg width="21px" height="22px" viewBox="0 0 21 22" version="1.1" xmlns="http://www.w3.org/2000/svg" xmlns:xlink="http://www.w3.org/1999/xlink">
    <!-- Generator: Sketch 52.6 (67491) - http://www.bohemiancoding.com/sketch -->
    <title>Group 11</title>
    <desc>Created with Sketch.</desc>
    <g id="Final-design" stroke="none" stroke-width="1" fill="none" fill-rule="evenodd" opacity="0.600000024">
        <g id="Service-Providers--new" transform="translate(-351.000000, -846.000000)" fill="#000000">
            <g id="Group-7" transform="translate(1.000000, 837.000000)">
                <g id="Group-24" transform="translate(37.000000, 6.000000)">
                    <g id="Group-11" transform="translate(313.000000, 3.000000)">
                        <path d="M11.5421064,4.83944255 C11.5421064,4.01895319 11.5409149,3.19861277 11.5424043,2.37827234 C11.5444894,1.11678298 12.5104894,0.150931915 13.7722766,0.150038298 C15.4010426,0.148697872 17.0299574,0.148548936 18.6588723,0.150038298 C19.9054681,0.151080851 20.8802553,1.11797447 20.8845745,2.3674 C20.8899362,4.02059149 20.8894894,5.67393191 20.8847234,7.32697447 C20.881,8.58682553 19.9106809,9.55565532 18.6514255,9.55878298 C17.0226596,9.56295319 15.3935957,9.5634 13.7648298,9.55878298 C12.506617,9.55505957 11.5440426,8.58086809 11.5424043,7.31922979 C11.5412128,6.49278298 11.5421064,5.6660383 11.5421064,4.83944255" id="Fill-1"></path>
                        <g id="Group-5" transform="translate(0.000000, 0.023681)">
                            <path d="M0.00275531915,4.82435532 C0.00275531915,4.01592979 0.00141489362,3.20765319 0.00305319149,2.3993766 C0.00588297872,1.07369574 0.955351064,0.126312766 2.2801383,0.126014894 C3.88462766,0.125717021 5.48926596,0.125568085 7.09375532,0.126014894 C8.37520213,0.126461702 9.3447766,1.08858936 9.34805319,2.37197234 C9.3522234,4.01280213 9.35281915,5.65378085 9.34790426,7.29461064 C9.34403191,8.56488723 8.37296809,9.53252553 7.10284043,9.53535532 C5.47392553,9.53878085 3.84530851,9.54027021 2.21639362,9.53475957 C0.983797872,9.53058936 0.0182446809,8.57218511 0.00469148936,7.34048298 C-0.00469148936,6.5018234 0.00290425532,5.66301489 0.00275531915,4.82435532" id="Fill-3"></path>
                        </g>
                        <path d="M0.00275531915,16.4621383 C0.00275531915,15.6477553 0.000968085106,14.8333723 0.00320212766,14.0191383 C0.00632978723,12.7213085 0.966819149,11.7629043 2.26330851,11.7621596 C3.86764894,11.7614149 5.4721383,11.7615638 7.07632979,11.7621596 C8.37981915,11.7627553 9.34656383,12.7259255 9.3485,14.0306064 C9.35103191,15.653117 9.35088298,17.2759255 9.34864894,18.8985851 C9.3468617,20.2089255 8.38935106,21.1689681 7.08362766,21.1701596 C5.47303191,21.1719468 3.86228723,21.1723936 2.25184043,21.1701596 C0.9625,21.1685213 0.00707446809,20.2129468 0.00320212766,18.9236064 C0.000819148936,18.103266 0.00275531915,17.2827766 0.00275531915,16.4621383" id="Fill-6"></path>
                        <g id="Group-10" transform="translate(11.468085, 11.640702)">
                            <path d="M4.74034043,9.5298 C3.93206383,9.52994894 3.12378723,9.53188511 2.31551064,9.52950213 C1.02974468,9.5260766 0.0747659574,8.56528936 0.0741702128,7.27639574 C0.0734255319,5.64762979 0.0735744681,4.01886383 0.0741702128,2.39009787 C0.0746170213,1.10105532 0.995191489,0.142055319 2.28617021,0.128204255 C3.94531915,0.110331915 5.60476596,0.111225532 7.26361702,0.125374468 C8.44214894,0.135502128 9.40531915,1.10686383 9.41395745,2.28733191 C9.42602128,3.98297021 9.42661702,5.67875745 9.41351064,7.37424681 C9.40412766,8.56156596 8.42725532,9.51833191 7.23814894,9.52831064 C6.40574468,9.53545957 5.57304255,9.5298 4.74034043,9.5298" id="Fill-8"></path>
                        </g>
                    </g>
                </g>
            </g>
        </g>
    </g>
</svg>