<?xml version="1.0" encoding="UTF-8"?>
<svg width="64px" height="62px" viewBox="0 0 64 62" version="1.1" xmlns="http://www.w3.org/2000/svg" xmlns:xlink="http://www.w3.org/1999/xlink">
    <!-- Generator: Sketch 52.6 (67491) - http://www.bohemiancoding.com/sketch -->
    <title>Group Copy</title>
    <desc>Created with Sketch.</desc>
    <defs>
        <filter x="-10.8%" y="-11.0%" width="121.7%" height="122.0%" filterUnits="objectBoundingBox" id="filter-1">
            <feOffset dx="0" dy="1" in="SourceAlpha" result="shadowOffsetOuter1"></feOffset>
            <feGaussianBlur stdDeviation="1" in="shadowOffsetOuter1" result="shadowBlurOuter1"></feGaussianBlur>
            <feColorMatrix values="0 0 0 0 0   0 0 0 0 0   0 0 0 0 0  0 0 0 0.25 0" type="matrix" in="shadowBlurOuter1" result="shadowMatrixOuter1"></feColorMatrix>
            <feMerge>
                <feMergeNode in="shadowMatrixOuter1"></feMergeNode>
                <feMergeNode in="SourceGraphic"></feMergeNode>
            </feMerge>
        </filter>
        <path d="M8.67903614,2.05590361 C6.39325301,3.46481928 4.8260241,5.42024096 4.07710843,8.03710843 C3.56963855,9.81036145 3.5746988,11.6074699 3.64481928,13.4146988 C3.66216867,13.8542169 3.65277108,14.1281928 3.11783133,14.1780723 C1.1139759,14.3631325 0.478554217,15.9628916 0.477108434,17.3848193 C0.472771084,21.4315663 0.500240964,25.4790361 0.460481928,29.5243373 C0.44746988,30.8233735 1.72626506,32.46 3.29566265,32.4122892 C6.84650602,32.3045783 10.4031325,32.3775904 13.9583133,32.3775904 L13.9583133,32.3819277 C17.4549398,32.3819277 20.9515663,32.3833735 24.4481928,32.3819277 C26.3812048,32.3812048 27.5190361,31.2527711 27.513253,29.3233735 C27.5009639,25.1942169 27.4807229,21.066506 27.4575904,16.9387952 C27.4489157,15.5110843 26.6479518,14.4440964 25.1949398,14.2445783 C24.4019277,14.1346988 24.380241,13.7992771 24.3824096,13.1906024 C24.3889157,11.0746988 24.3650602,8.96313253 23.5315663,6.9513253 C22.1862651,3.69903614 19.6987952,1.67566265 16.3995181,0.855903614 C15.5681928,0.649879518 14.7339759,0.545060241 13.9062651,0.545060241 C12.1004819,0.545060241 10.3257831,1.04168675 8.67903614,2.05590361 M6.7286747,14.0342169 C6.64698795,14.0342169 6.5660241,13.9915663 6.5226506,13.9792771 C6.5226506,12.8356627 6.58048193,11.7715663 6.51180723,10.7146988 C6.29493976,7.36337349 9.67156627,3.84072289 12.833494,3.46481928 C17.1636145,2.95012048 20.5583133,5.68409639 21.3715663,9.40120482 C21.673012,10.7812048 21.4706024,12.2746988 21.4510843,13.7168675 C21.4489157,13.8484337 21.1033735,14.0891566 20.9168675,14.0891566 C16.1877108,14.0877108 11.4578313,14.0609639 6.7286747,14.0342169 M12.8385542,25.2180723 L12.8385542,23.2098795 C12.3975904,22.8122892 12.1156627,22.2433735 12.1156627,21.6036145 C12.1156627,20.406506 13.0872289,19.4349398 14.2843373,19.4349398 C15.4821687,19.4349398 16.453012,20.406506 16.453012,21.6036145 C16.453012,22.2433735 16.1710843,22.8122892 15.7301205,23.2098795 L15.7301205,25.2180723 C15.7301205,26.013253 15.0795181,26.6638554 14.2843373,26.6638554 C13.4891566,26.6638554 12.8385542,26.013253 12.8385542,25.2180723" id="path-2"></path>
        <linearGradient x1="50.0003843%" y1="-24.6582836%" x2="50.0003843%" y2="75.3405082%" id="linearGradient-4">
            <stop stop-color="#FDE608" offset="0%"></stop>
            <stop stop-color="#FDC808" offset="100%"></stop>
        </linearGradient>
        <polygon id="path-5" points="0 0.226987952 47.4179277 0.226987952 47.4179277 57.8313147 0 57.8313147"></polygon>
    </defs>
    <g id="Final-design" stroke="none" stroke-width="1" fill="none" fill-rule="evenodd">
        <g id="menu-screen-copy-3" transform="translate(-282.000000, -459.000000)">
            <g id="Group-Copy" transform="translate(284.000000, 459.000000)">
                <g id="Group-20" filter="url(#filter-1)">
                    <g id="Group-3" transform="translate(31.807229, 25.796892)">
                        <mask id="mask-3" fill="white">
                            <use xlink:href="#path-2"></use>
                        </mask>
                        <g id="Clip-2"></g>
                        <path d="M8.67903614,2.05590361 C6.39325301,3.46481928 4.8260241,5.42024096 4.07710843,8.03710843 C3.56963855,9.81036145 3.5746988,11.6074699 3.64481928,13.4146988 C3.66216867,13.8542169 3.65277108,14.1281928 3.11783133,14.1780723 C1.1139759,14.3631325 0.478554217,15.9628916 0.477108434,17.3848193 C0.472771084,21.4315663 0.500240964,25.4790361 0.460481928,29.5243373 C0.44746988,30.8233735 1.72626506,32.46 3.29566265,32.4122892 C6.84650602,32.3045783 10.4031325,32.3775904 13.9583133,32.3775904 L13.9583133,32.3819277 C17.4549398,32.3819277 20.9515663,32.3833735 24.4481928,32.3819277 C26.3812048,32.3812048 27.5190361,31.2527711 27.513253,29.3233735 C27.5009639,25.1942169 27.4807229,21.066506 27.4575904,16.9387952 C27.4489157,15.5110843 26.6479518,14.4440964 25.1949398,14.2445783 C24.4019277,14.1346988 24.380241,13.7992771 24.3824096,13.1906024 C24.3889157,11.0746988 24.3650602,8.96313253 23.5315663,6.9513253 C22.1862651,3.69903614 19.6987952,1.67566265 16.3995181,0.855903614 C15.5681928,0.649879518 14.7339759,0.545060241 13.9062651,0.545060241 C12.1004819,0.545060241 10.3257831,1.04168675 8.67903614,2.05590361 M6.7286747,14.0342169 C6.64698795,14.0342169 6.5660241,13.9915663 6.5226506,13.9792771 C6.5226506,12.8356627 6.58048193,11.7715663 6.51180723,10.7146988 C6.29493976,7.36337349 9.67156627,3.84072289 12.833494,3.46481928 C17.1636145,2.95012048 20.5583133,5.68409639 21.3715663,9.40120482 C21.673012,10.7812048 21.4706024,12.2746988 21.4510843,13.7168675 C21.4489157,13.8484337 21.1033735,14.0891566 20.9168675,14.0891566 C16.1877108,14.0877108 11.4578313,14.0609639 6.7286747,14.0342169" id="Fill-1" fill="url(#linearGradient-4)" mask="url(#mask-3)"></path>
                    </g>
                    <g id="Group-19" transform="translate(0.000000, 0.495687)">
                        <g id="Group-6">
                            <mask id="mask-6" fill="white">
                                <use xlink:href="#path-5"></use>
                            </mask>
                            <g id="Clip-5"></g>
                            <path d="M-0.000144578313,6.30715663 C-0.000144578313,3.34077212 1.41204823,0.268843373 6.07286747,0.265228916 C13.6727091,0.259335251 21.2731084,0.208843373 28.8728675,0.268843373 C31.1752771,0.287638554 33.2470843,1.22306024 35.1345542,2.51559036 C37.5526265,4.17101205 39.7321446,6.10113253 41.6456386,8.32474699 C42.7097349,9.56016867 43.8511807,10.7384819 44.8140723,12.0476386 C46.2526265,14.0030602 47.0832289,16.2187229 47.1815422,18.6787229 C47.2415422,20.191012 47.3347952,21.7018554 47.4179277,23.2958313 C46.4297349,23.2958313 45.5919036,23.3196867 44.7584096,23.2741446 C44.602988,23.2654699 44.349253,22.984988 44.336241,22.8143855 C44.2813012,22.1261928 44.2784096,21.4300482 44.3008193,20.7389639 C44.3738313,18.4228193 43.6140723,17.858241 41.4005783,17.4042651 C39.4878072,17.0117349 37.5403373,16.8165542 35.7649157,15.858 C33.1422651,14.4425783 31.5316627,12.2760723 30.729253,9.46474699 C30.3410602,8.10498795 30.0728675,6.7119759 29.6673253,5.35872289 C29.2343133,3.91293976 28.1506988,3.1726988 26.6543133,3.1719759 C19.976241,3.17125301 13.2981687,3.17053012 6.62081928,3.1719759 C4.60756627,3.1726988 3.11118072,4.66763855 3.11118072,6.68016867 C3.10973494,21.5095663 3.12563855,36.3404096 3.09310843,51.1705301 C3.08804819,53.2922169 4.91407229,54.8890843 6.86515663,54.8926988 C14.062988,54.9064337 21.2615422,54.897759 28.4593735,54.897759 L29.5191325,54.897759 C29.7974458,55.8505301 30.0706988,56.7852289 30.3728675,57.8225783 L29.4468434,57.8225783 C21.9887711,57.8225783 14.5299982,57.8487045 7.07190361,57.831253 C3.36466658,57.8225783 1.06575989e-14,56.6101669 -0.000144578313,51.7625783 L-0.000144578313,6.30715663 Z" id="Fill-4-Copy" fill="#000000" mask="url(#mask-6)"></path>
                        </g>
                        <path d="M22.9880241,25.3790602 C18.1041687,25.3790602 13.2203133,25.3797831 8.33573494,25.3783373 C7.17693976,25.3783373 7.12778313,25.3248434 7.12561446,24.1327952 C7.12561446,23.8443614 7.03019277,23.5046024 7.14946988,23.2783373 C7.31718072,22.9602651 7.62368675,22.7000241 7.91356627,22.4694217 C8.01983133,22.3841205 8.24971084,22.454241 8.42320482,22.454241 C18.1909157,22.454241 27.9586265,22.4614699 37.7263373,22.4441205 C38.8092289,22.4426747 39.1077831,22.5764096 39.0246506,23.787253 C39.0166988,23.9021928 39.0239277,24.0178554 39.0239277,24.1335181 C39.021759,25.3248434 38.9718795,25.3783373 37.8130843,25.3783373 C34.8940482,25.3797831 31.9757349,25.3790602 29.0566988,25.3790602 L22.9880241,25.3790602 Z" id="Fill-7" fill="#000000"></path>
                        <path d="M20.4787229,32.1455422 C16.4652289,32.1455422 12.4517349,32.1462651 8.43896386,32.1448193 C7.4066747,32.1440964 7.13125301,31.839759 7.12546988,30.7156627 C7.11968675,29.4368675 7.40306024,29.0515663 8.42233735,29.0508434 C16.4486024,29.0450602 24.4755904,29.0450602 32.5018554,29.0501205 C33.4661928,29.0508434 33.638241,29.2460241 33.6461928,30.2110843 C33.6620964,32.2192771 33.7799277,32.1571084 31.7392048,32.1491566 C27.9859518,32.1346988 24.2319759,32.1455422 20.4787229,32.1455422" id="Fill-9" fill="#000000"></path>
                        <path d="M19.2991084,35.8137108 C22.9092289,35.8137108 26.5193494,35.8303373 30.1294699,35.8006988 C30.9636867,35.7941928 31.2398313,36.1079277 31.2297108,36.9211807 C31.2044096,38.9113012 31.2311566,38.9113012 29.2338072,38.9113012 L8.95886747,38.9113012 C7.32657831,38.9113012 7.04248193,38.6141928 7.12633735,36.9999759 C7.17549398,36.0399759 7.40681928,35.8158795 8.382,35.8144337 C12.0210361,35.8115422 15.6600723,35.8137108 19.2991084,35.8137108" id="Fill-11" fill="#000000"></path>
                        <path d="M18.3975904,42.5794699 C21.7771084,42.5794699 25.1566265,42.5975422 28.5354217,42.5664578 C29.3660241,42.5599518 29.6985542,42.7826024 29.6775904,43.685494 C29.6342169,45.5729639 29.7209639,45.512241 27.8060241,45.5086265 C21.3643373,45.4970602 14.9233735,45.5042892 8.48240964,45.5042892 C7.21228916,45.5042892 7.12337349,45.4059759 7.12554217,44.0216386 C7.12843373,42.678506 7.22313253,42.5801928 8.51927711,42.5794699 L18.3975904,42.5794699 Z" id="Fill-13" fill="#000000"></path>
                        <path d="M15.9172048,11.1541446 C13.349494,11.1541446 10.7817831,11.1563133 8.2133494,11.1526988 C7.3046747,11.151253 7.13479518,10.9264337 7.12539759,9.75318072 C7.11672289,8.57414458 7.34877108,8.23293976 8.23286747,8.23149398 C13.3972048,8.22426506 18.5622651,8.23727711 23.7273253,8.21775904 C24.4278072,8.21486747 24.6887711,8.58354217 24.782747,9.16691566 C24.8282892,9.44884337 24.8022651,9.74306024 24.795759,10.031494 C24.7747952,10.9466747 24.5174458,11.2018554 23.6138313,11.2025783 C21.0482892,11.2040241 18.482747,11.2033012 15.9172048,11.2033012 L15.9172048,11.1541446 Z" id="Fill-15" fill="#000000"></path>
                        <path d="M34.8868193,42.2060241 L34.8868193,50.1578313 L42.4807952,50.893012 C43.2340482,50.9653012 43.9894699,51.006506 44.7448916,51.0318072 C44.6834458,50.8720482 44.6458554,50.7 44.6458554,50.5192771 L44.6458554,48.5110843 C44.2056145,48.113494 43.9229639,47.5445783 43.9229639,46.9048193 C43.9229639,45.7077108 44.8938072,44.7361446 46.0916386,44.7361446 C47.2894699,44.7361446 48.2603133,45.7077108 48.2603133,46.9048193 C48.2603133,47.5445783 47.9776627,48.113494 47.5374217,48.5110843 L47.5374217,50.5192771 C47.5374217,50.6971084 47.5005542,50.8655422 47.4412771,51.0231325 C48.195253,50.9920482 48.948506,50.9472289 49.6995904,50.8684337 L56.5735663,50.1578313 L56.5735663,42.2060241 L34.8868193,42.2060241 Z" id="Fill-17" fill="#F9EAC0"></path>
                    </g>
                </g>
                <path d="M44.6457831,51.0149639 L44.6457831,49.0067711 C44.2048193,48.6091807 43.9228916,48.0402651 43.9228916,47.400506 C43.9228916,46.2033976 44.8944578,45.2318313 46.0915663,45.2318313 C47.2893976,45.2318313 48.260241,46.2033976 48.260241,47.400506 C48.260241,48.0402651 47.9783133,48.6091807 47.5373494,49.0067711 L47.5373494,51.0149639 C47.5373494,51.8101446 46.886747,52.460747 46.0915663,52.460747 C45.2963855,52.460747 44.6457831,51.8101446 44.6457831,51.0149639" id="Path" fill="#000000"></path>
            </g>
        </g>
    </g>
</svg>