<?xml version="1.0" encoding="UTF-8"?>
<svg width="30px" height="30px" viewBox="0 0 30 30" version="1.1" xmlns="http://www.w3.org/2000/svg" xmlns:xlink="http://www.w3.org/1999/xlink">
    <!-- Generator: Sketch 52.6 (67491) - http://www.bohemiancoding.com/sketch -->
    <title>oil-change-icon</title>
    <desc>Created with Sketch.</desc>
    <defs>
        <polygon id="path-1" points="0.0109538566 0.0226168831 2.95953632 0.0226168831 2.95953632 2.24979545 0.0109538566 2.24979545"></polygon>
    </defs>
    <g id="Final-design" stroke="none" stroke-width="1" fill="none" fill-rule="evenodd">
        <g id="Service-Providers--new" transform="translate(-135.000000, -247.000000)">
            <g id="Group-4" transform="translate(13.000000, 111.000000)">
                <g id="Group" transform="translate(46.000000, 136.000000)">
                    <g id="oil-change-icon" transform="translate(76.000000, 0.000000)">
                        <g id="Group-Copy" stroke="#2181F2">
                            <circle id="Oval-Copy-11" cx="15" cy="15" r="14.5"></circle>
                        </g>
                        <g id="Group-10" transform="translate(10.714286, 6.428571)">
                            <path d="M4.98851883,4.81675909 C5.00429805,4.94965519 5.01470065,5.06583701 5.03223312,5.18085 C5.22573312,6.45464221 6.43003831,7.47368766 7.71668766,7.44867468 C7.79347987,7.44721364 7.87868766,7.42272662 7.94414221,7.38286948 C8.08165519,7.29923961 8.13588896,7.13373312 8.09422013,6.98529156 C8.04694091,6.81715519 7.92164221,6.71447338 7.73842792,6.70822013 C7.27884351,6.69279156 6.85911623,6.56422013 6.49771364,6.27388247 C5.99967468,5.87367468 5.76152532,5.34530455 5.73832403,4.71244091 C5.73107727,4.51631104 5.60396688,4.37120065 5.42139545,4.34016818 C5.26167468,4.3130513 5.07711623,4.41608377 5.02212273,4.5785513 C4.99529805,4.65785649 4.99751883,4.74703831 4.98851883,4.81675909 M4.78502532,8.39425909 C4.74715519,8.47081753 4.72038896,8.52259675 4.69566818,8.57536948 C4.26343442,9.49886299 3.8329539,10.4231747 3.39844091,11.3456162 C3.27460325,11.6086032 3.21914221,11.8808825 3.22960325,12.1716292 C3.26180455,13.0632721 4.15654481,13.7875968 5.03141494,13.625363 C6.07833701,13.4311617 6.64206429,12.3542591 6.19586299,11.3881617 C5.75556429,10.4349214 5.30673312,9.48553831 4.86123312,8.53463571 C4.84294091,8.49559675 4.8201487,8.45866169 4.78502532,8.39425909 M6.42857143e-05,9.56180455 C6.42857143e-05,7.83877208 -0.000111038961,6.11573961 0.000181168831,4.39270714 C0.000298051948,3.62647987 0.531298052,3.08577857 1.29892792,3.08367468 C2.75762922,3.07958377 4.21638896,3.07935 5.6751487,3.08390844 C6.44312922,3.08630455 6.97249286,3.62531104 6.97710974,4.39352532 C6.98160974,5.14952532 7.51862922,5.69484351 8.27901234,5.71260974 C9.09754481,5.73172013 9.58804481,6.36662922 9.58377857,7.04659675 C9.56782403,9.60820714 9.57752532,12.1699344 9.57729156,14.7316617 C9.57717468,15.5006357 9.03588896,16.0467136 8.26492792,16.0473565 C5.9472526,16.0492266 3.62951883,16.0494019 1.31178506,16.0472396 C0.539947403,16.0464799 0.000181168831,15.5005773 0.000122727273,14.7309604 C-5.25974026e-05,13.0078695 6.42857143e-05,11.284837 6.42857143e-05,9.56180455" id="Fill-1" fill="#000000"></path>
                            <g id="Group-5" transform="translate(1.344156, 0.035825)">
                                <mask id="mask-2" fill="white">
                                    <use xlink:href="#path-1"></use>
                                </mask>
                                <g id="Clip-4"></g>
                                <path d="M2.95881429,2.24979545 L0.0261584416,2.24979545 C0.0261584416,1.82849026 -0.013874026,1.40975649 0.0359766234,1.00189286 C0.103418182,0.449795455 0.60285974,0.040762987 1.15834675,0.0284902597 C1.45125584,0.0220616883 1.75281429,0.00908766234 2.03654805,0.0671201299 C2.59390519,0.181198052 2.95448961,0.665444805 2.95840519,1.23560065 C2.96068442,1.56971104 2.95881429,1.90393831 2.95881429,2.24979545" id="Fill-3" fill="#2181F2" mask="url(#mask-2)"></path>
                            </g>
                            <path d="M4.78500195,8.3942474 C4.82018377,8.45870844 4.84297597,8.49558506 4.86126818,8.53462403 C5.30676818,9.48552662 5.75554091,10.4349097 6.19583961,11.38815 C6.64204091,12.3542474 6.07831364,13.4312084 5.03145,13.6253513 C4.15652143,13.7875851 3.26178117,13.0633188 3.22957987,12.1716175 C3.21911883,11.8808708 3.27463831,11.6085916 3.39847597,11.3456045 C3.83293052,10.423163 4.26346948,9.4988513 4.69570325,8.57541623 C4.72042403,8.52258506 4.74719026,8.47086429 4.78500195,8.3942474" id="Fill-6" fill="#FFFFFF"></path>
                            <path d="M4.98851883,4.81675909 C4.99751883,4.74703831 4.99529805,4.65785649 5.02212273,4.5785513 C5.07711623,4.41608377 5.26167468,4.3130513 5.42139545,4.34016818 C5.60396688,4.37120065 5.73107727,4.51631104 5.73832403,4.71244091 C5.76152532,5.34530455 5.99967468,5.87367468 6.49771364,6.27388247 C6.85911623,6.56422013 7.27884351,6.69279156 7.73842792,6.70822013 C7.92164221,6.71447338 8.04694091,6.81715519 8.09422013,6.98529156 C8.13588896,7.13373312 8.08165519,7.29923961 7.94414221,7.38286948 C7.87868766,7.42272662 7.79347987,7.44721364 7.71668766,7.44867468 C6.43003831,7.47368766 5.22573312,6.45464221 5.03223312,5.18085 C5.01470065,5.06583701 5.00429805,4.94965519 4.98851883,4.81675909" id="Fill-8" fill="#FFFFFF"></path>
                        </g>
                    </g>
                </g>
            </g>
        </g>
    </g>
</svg>