<?xml version="1.0" encoding="UTF-8"?>
<svg width="22px" height="22px" viewBox="0 0 22 22" version="1.1" xmlns="http://www.w3.org/2000/svg" xmlns:xlink="http://www.w3.org/1999/xlink">
    <!-- Generator: Sketch 52.6 (67491) - http://www.bohemiancoding.com/sketch -->
    <title>Group 8</title>
    <desc>Created with Sketch.</desc>
    <g id="Final-design" stroke="none" stroke-width="1" fill="none" fill-rule="evenodd">
        <g id="menu-screen-copy-3" transform="translate(-37.000000, -770.000000)">
            <g id="Group-8" transform="translate(38.000000, 771.000000)">
                <g id="Group-3" transform="translate(0.000000, 0.004143)" stroke="#000000">
                    <path d="M19.8447092,9.99932271 C19.8447092,10.3843426 19.8453466,10.7692829 19.8446295,11.1541434 C19.8438327,11.5346215 19.5973785,11.7866534 19.2175378,11.7893625 C18.7788127,11.7924701 18.3400876,11.7898406 17.9012829,11.7904781 C17.7189721,11.7907171 17.6850279,11.8154183 17.6411235,11.9880876 C17.4542709,12.7229084 17.1651873,13.4150996 16.7792908,14.0673705 C16.6990518,14.202988 16.7054263,14.2495219 16.8171394,14.360996 C17.1248685,14.6678486 17.4337928,14.973506 17.7411235,15.2808367 C18.0251076,15.5648207 18.0244701,15.9162948 17.7396892,16.2014741 C17.2045498,16.7375697 16.6689323,17.2731076 16.1329163,17.8083267 C15.8444701,18.0964542 15.4940319,18.0944622 15.2026375,17.8036255 C14.8979363,17.4995618 14.5939522,17.1948606 14.28949,16.8904781 C14.1670996,16.7680876 14.1268606,16.7623506 13.976741,16.8512749 C13.3245498,17.2376494 12.631004,17.5234661 11.8965817,17.7109562 C11.7416813,17.7504781 11.7115618,17.7895219 11.711243,17.9558167 C11.7105259,18.3904781 11.7120398,18.8250598 11.7106056,19.2596414 C11.709251,19.6817928 11.4686932,19.9201195 11.0467012,19.9201992 C10.2933147,19.9202789 9.54000797,19.9204382 8.7867012,19.9201195 C8.38184064,19.9199602 8.13419124,19.6778088 8.13140239,19.2743825 C8.12829482,18.8398008 8.12988845,18.4052191 8.12877291,17.9706375 C8.1283745,17.7957371 8.10335458,17.760996 7.9372988,17.7185259 C7.19873307,17.5299203 6.50144223,17.2420319 5.84765737,16.8501594 C5.73721912,16.7838645 5.65196016,16.7954183 5.56160159,16.8873705 C5.25419124,17.2003586 4.94263745,17.5092829 4.63196016,17.8191633 C4.34789641,18.10251 3.99419124,18.1036255 3.71108367,17.8211554 C3.17203984,17.2831474 2.6334741,16.7446614 2.09570518,16.2054582 C1.81849402,15.9276096 1.81889243,15.5719124 2.09674104,15.2935857 C2.4067012,14.982988 2.71865339,14.6745418 3.02949004,14.3649004 C3.15243825,14.2424303 3.15769721,14.2032271 3.0683745,14.0523904 C2.68423108,13.4037849 2.40000797,12.7138247 2.21156175,11.9841036 C2.1670996,11.8120717 2.13395219,11.7868924 1.95164143,11.7866534 C1.51705976,11.7860956 1.08247809,11.7876096 0.647896414,11.7859363 C0.242239044,11.7843426 0.000406374502,11.5401195 0.000247011952,11.1345418 C7.96812722e-06,10.3728685 -0.000151394423,9.6112749 0.000326693227,8.84968127 C0.000645418326,8.46083665 0.245984064,8.21079681 0.63387251,8.20848606 C1.07259761,8.20585657 1.51140239,8.20816733 1.95012749,8.20752988 C2.12502789,8.20729084 2.15825498,8.18338645 2.20112351,8.01541833 C2.38972908,7.27685259 2.67913147,6.58027888 3.06717928,5.92434263 C3.14550598,5.79207171 3.13745817,5.74458167 3.02423108,5.63111554 C2.72016733,5.32641434 2.41554582,5.0223506 2.11116335,4.71788845 C1.81148207,4.41820717 1.81267729,4.07247012 2.11458964,3.77047809 C2.64423108,3.24059761 3.17387251,2.71079681 3.70391235,2.18123506 C3.99331474,1.89207171 4.3458247,1.89119522 4.63363347,2.17948207 C4.94359363,2.48992032 5.25227888,2.80171315 5.56215936,3.11231076 C5.67506773,3.22553785 5.71873307,3.23207171 5.85490837,3.15135458 C6.51411155,2.76043825 7.21411155,2.46816733 7.9581753,2.28370518 C8.08335458,2.25270916 8.13466932,2.18203187 8.13355378,2.05398406 C8.13004781,1.61525896 8.13148207,1.17645418 8.13259761,0.737729084 C8.13363347,0.315737052 8.37458964,0.0758167331 8.7956255,0.0756573705 C9.54893227,0.075498008 10.302239,0.075498008 11.0555458,0.0756573705 C11.4677371,0.0758167331 11.7091713,0.316932271 11.7106056,0.732310757 C11.7121195,1.162749 11.7106056,1.59318725 11.711243,2.02370518 C11.7115618,2.19820717 11.7371394,2.23406375 11.9024781,2.27613546 C12.6412032,2.46434263 13.3377769,2.75358566 13.9937131,3.14163347 C14.1275777,3.22083665 14.17451,3.21358566 14.2871793,3.10115538 C14.594749,2.79414343 14.9014422,2.4861753 15.209251,2.17932271 C15.4987331,1.89063745 15.849251,1.89087649 16.1389721,2.18139442 C16.6737928,2.71780876 17.2080558,3.25462151 17.7412829,3.79262948 C18.0189721,4.07278884 18.0177769,4.42585657 17.7395299,4.70561753 C17.4300478,5.01669323 17.1189721,5.32609562 16.8088526,5.6363745 C16.6957052,5.74960159 16.6882151,5.79414343 16.7680558,5.92888446 C17.1588127,6.58816733 17.4508446,7.28824701 17.6357849,8.03207171 C17.6667809,8.15653386 17.7356255,8.21007968 17.8643904,8.20904382 C18.3031155,8.20553785 18.7419203,8.20697211 19.1806454,8.20800797 C19.6027171,8.20896414 19.8443904,8.45039841 19.8447092,8.86936255 C19.8449482,9.24601594 19.8447888,9.62266932 19.8447092,9.99932271" id="Fill-1"></path>
                </g>
                <path d="M5.85831076,9.99685259 C5.85615936,12.2417131 7.66906773,14.0618725 9.91105976,14.0657769 C12.1625339,14.069761 13.9838884,12.2555777 13.9861992,10.0067331 C13.9885896,7.76211155 12.1754422,5.94187251 9.93329084,5.93796813 C7.68173705,5.93398406 5.86046215,7.74808765 5.85831076,9.99685259 M4.9219428,9.99838465 C4.92439144,7.23885294 7.16299522,5.00160804 9.92207166,5.00151735 C12.6869523,5.00142666 14.9280047,7.24728716 14.9219285,10.0122603 C14.9158522,12.7726989 12.6745277,15.0063162 9.91526988,15.0015096 C7.15456101,14.9967937 4.91949415,12.7572815 4.9219428,9.99838465" id="Fill-4" fill="#000000"></path>
                <path d="M6.17353785,10.0091474 L6.50110757,10.0091474 C6.53568924,11.059745 6.92724303,11.9381514 7.72827888,12.6151235 C8.3869243,13.1717769 9.15632669,13.4367171 10.0187171,13.4143267 C11.883498,13.3658805 13.3463665,11.8241275 13.3455697,10.0113785 L13.6692351,10.0113785 C13.6263665,11.2921753 13.1227012,12.3403825 12.0638964,13.0603825 C10.747243,13.9558406 9.35234263,14.0042869 7.9830996,13.1912988 C6.79768127,12.4873944 6.22923506,11.3905817 6.17353785,10.0091474" id="Fill-6" fill="#000000"></path>
            </g>
        </g>
    </g>
</svg>