<?xml version="1.0" encoding="UTF-8"?>
<svg width="30px" height="25px" viewBox="0 0 30 25" version="1.1" xmlns="http://www.w3.org/2000/svg" xmlns:xlink="http://www.w3.org/1999/xlink">
    <!-- Generator: Sketch 52.6 (67491) - http://www.bohemiancoding.com/sketch -->
    <title>vehicle-Model-icon</title>
    <desc>Created with Sketch.</desc>
    <g id="Final-design" stroke="none" stroke-width="1" fill="none" fill-rule="evenodd">
        <g id="Confirm-Booking" transform="translate(-48.000000, -544.000000)" fill="#000000" fill-rule="nonzero">
            <g id="vehicle-Model-icon" transform="translate(48.000000, 544.000000)">
                <path d="M29.4648743,22.8108216 L23.8513184,20.4233551 L23.8513184,11.4985657 C23.8513184,11.1204529 23.6093903,10.7844544 23.2505036,10.664978 L15.9063721,8.21571352 L15.9063721,0.87890625 C15.9063721,0.393447891 15.5129242,-1.66533454e-15 15.0274658,-1.66533454e-15 C14.5422363,-1.66533454e-15 14.1485596,0.393447891 14.1485596,0.87890625 L14.1485596,8.21548465 L6.80465695,10.6647492 C6.44577023,10.7844544 6.20384215,11.120224 6.20384215,11.4985657 L6.20384215,20.3997803 L0.535125703,22.8108216 C0.0885772852,23.0007935 -0.119705215,23.516922 0.0702667383,23.9636994 C0.212631211,24.2980957 0.537643418,24.4988251 0.87959291,24.4988251 C0.994262695,24.4988251 1.11076354,24.4761657 1.22314453,24.4283295 L7.0916748,21.9326019 L14.7537231,24.4457245 C14.8427582,24.4750213 14.9352264,24.4894409 15.0276947,24.4894409 C15.1201629,24.4894409 15.2126312,24.4750213 15.3014374,24.4457245 L22.9325866,21.9426727 L28.7768555,24.4283295 C28.8892365,24.4761657 29.0057373,24.4985962 29.1204071,24.4985962 C29.4623566,24.4985962 29.7873688,24.2978668 29.9297333,23.9634704 C30.1197052,23.516922 29.9114227,23.0007935 29.4648743,22.8108216 Z M15.0276947,9.77531432 L20.173645,11.4916992 L15.0276947,13.1797028 L9.88151549,11.4916992 L15.0276947,9.77531432 Z M15.9066009,14.7413636 L22.0935059,12.7118683 L22.0935059,20.3679657 L15.9066009,22.3974609 L15.9066009,14.7413636 Z M7.96165465,12.7118683 L14.1487884,14.7413636 L14.1487884,22.3974609 L7.96165465,20.3679657 L7.96165465,12.7118683 Z" id="Shape"></path>
            </g>
        </g>
    </g>
</svg>