<?xml version="1.0" encoding="UTF-8"?>
<svg width="30px" height="18px" viewBox="0 0 30 18" version="1.1" xmlns="http://www.w3.org/2000/svg" xmlns:xlink="http://www.w3.org/1999/xlink">
    <!-- Generator: Sketch 52.6 (67491) - http://www.bohemiancoding.com/sketch -->
    <title>VIN-Number-icon</title>
    <desc>Created with Sketch.</desc>
    <g id="Final-design" stroke="none" stroke-width="1" fill="none" fill-rule="evenodd">
        <g id="Confirm-Booking" transform="translate(-50.000000, -597.000000)" fill="#000000">
            <g id="VIN-Number-icon" transform="translate(50.000000, 597.000000)">
                <polygon id="Fill-1" points="24.3523358 14.8210511 26.080073 14.8210511 26.080073 2.51886131 24.3523358 2.51886131"></polygon>
                <polygon id="Fill-2" points="8.42912409 14.8274015 9.92627737 14.8274015 9.92627737 2.5230219 8.42912409 2.5230219"></polygon>
                <polygon id="Fill-3" points="3.79291971 14.8241168 5.22021898 14.8241168 5.22021898 2.51929927 3.79291971 2.51929927"></polygon>
                <polygon id="Fill-4" points="15.6256204 14.8302482 17.0047445 14.8302482 17.0047445 2.51908029 15.6256204 2.51908029"></polygon>
                <polygon id="Fill-5" points="18.1110219 14.8210511 19.3839416 14.8210511 19.3839416 2.51864234 18.1110219 2.51864234"></polygon>
                <polygon id="Fill-6" points="13.0335766 14.8210511 14.030146 14.8210511 14.030146 2.51820438 13.0335766 2.51820438"></polygon>
                <polygon id="Fill-7" points="11.0772263 14.8265255 11.830292 14.8265255 11.830292 2.51820438 11.0772263 2.51820438"></polygon>
                <polygon id="Fill-8" points="22.6421168 14.8241168 23.3954015 14.8241168 23.3954015 2.52083212 22.6421168 2.52083212"></polygon>
                <polygon id="Fill-9" points="20.639562 14.8265255 21.0032847 14.8265255 21.0032847 2.52389781 20.639562 2.52389781"></polygon>
                <polygon id="Fill-10" points="0.00433576642 -8.75912409e-05 0.00433576642 4.83013139 0.511270073 4.83013139 0.511270073 0.504218978 4.82689051 0.504218978 4.82689051 -8.75912409e-05"></polygon>
                <polygon id="Fill-11" points="25.0514672 0.00937226277 25.0514672 0.511927007 29.3754088 0.511927007 29.3754088 4.83017518 29.8768686 4.83017518 29.8768686 0.00937226277"></polygon>
                <polygon id="Fill-12" points="0 12.5149051 0 17.335927 4.82540146 17.335927 4.82540146 16.8331533 0.501678832 16.8331533 0.501678832 12.5149051"></polygon>
                <polygon id="Fill-13" points="29.3671314 12.5227883 29.3671314 16.8390657 25.0491022 16.8390657 25.0491022 17.3444672 29.8738467 17.3444672 29.8738467 12.5227883"></polygon>
                <polygon id="Fill-14" points="6.48350365 14.8269635 6.83824818 14.8269635 6.83824818 2.5179854 6.48350365 2.5179854"></polygon>
            </g>
        </g>
    </g>
</svg>