<?xml version="1.0" encoding="UTF-8"?>
<svg width="24px" height="24px" viewBox="0 0 24 24" version="1.1" xmlns="http://www.w3.org/2000/svg" xmlns:xlink="http://www.w3.org/1999/xlink">
    <!-- Generator: Sketch 52.6 (67491) - http://www.bohemiancoding.com/sketch -->
    <title>website-icon</title>
    <desc>Created with Sketch.</desc>
    <defs>
        <polygon id="path-1" points="0 0.00494378307 23.5768937 0.00494378307 23.5768937 23.5672073 0 23.5672073"></polygon>
    </defs>
    <g id="Final-design" stroke="none" stroke-width="1" fill="none" fill-rule="evenodd">
        <g id="Detail-screen-1" transform="translate(-30.000000, -504.000000)">
            <g id="website-icon" transform="translate(30.000000, 504.000000)">
                <g id="Group-3" transform="translate(0.000000, 0.375423)">
                    <mask id="mask-2" fill="white">
                        <use xlink:href="#path-1"></use>
                    </mask>
                    <g id="Clip-2"></g>
                    <path d="M15.3750513,1.56965112 C15.395587,1.66130126 15.3921644,1.69895007 15.4096577,1.71796462 C16.3885268,2.78696263 17.0688674,4.03013393 17.5814997,5.37864583 C17.6309375,5.50756448 17.8640559,5.63952546 18.015792,5.64484954 C18.7904448,5.67108962 19.5662384,5.65815972 20.3420321,5.65359623 C20.4352034,5.65321594 20.5279944,5.62203208 20.6763079,5.59465112 C19.3110632,3.66923776 17.5697106,2.35913525 15.3750513,1.56965112 M2.871083,5.65815972 C3.80165509,5.65815972 4.6044494,5.63724372 5.40534226,5.66690642 C5.7841121,5.68135747 5.96741237,5.56422784 6.10013393,5.20066964 C6.56827216,3.91946925 7.22997851,2.7458912 8.17195933,1.7438244 C8.20352348,1.7103588 8.2111293,1.65483631 8.25448247,1.55063657 C6.02407573,2.36065642 4.27283565,3.67113922 2.871083,5.65815972 M12.3213145,0.974495701 L12.3213145,5.60529927 L16.6581531,5.60529927 C15.7256796,3.52700893 14.7251339,1.63087798 12.3213145,0.974495701 M6.99457837,5.65739914 C8.38720403,5.65739914 9.73571594,5.66462467 11.0838476,5.64066634 C11.1675116,5.63914517 11.3146842,5.39804067 11.3173462,5.26645999 C11.3371214,4.26477348 11.3279944,3.26270668 11.3276141,2.26102017 L11.3276141,1.04522983 C9.55773975,1.12509094 7.65552414,3.44828869 6.99457837,5.65739914 M0.997769511,12.2546875 C1.03655919,13.5674521 1.31455192,14.7410301 1.76595734,15.8758185 C2.1991088,16.9653522 2.20443287,16.9634507 3.39056052,16.9634507 L5.47265377,16.9634507 C5.29201554,15.4331597 5.12278604,13.9629547 4.93568287,12.4950314 C4.92427414,12.4052827 4.7736789,12.2657159 4.68659226,12.2649554 C3.47536541,12.2497437 2.26375827,12.2546875 0.997769511,12.2546875 M0.995868056,11.3176505 C2.27782903,11.3176505 3.48905589,11.3241154 4.70066303,11.3028191 C4.78470734,11.3012979 4.92313327,11.0959408 4.93834491,10.9731068 C5.04748843,10.1007192 5.11023644,9.22224702 5.23002811,8.35138062 C5.30950893,7.77485946 5.45972388,7.20784557 5.58712136,6.5932953 C4.52306713,6.5932953 3.50769015,6.58873181 2.49269345,6.60052083 C2.39457837,6.60166171 2.25234954,6.68152282 2.20785549,6.76556713 C1.46628803,8.16579861 1.06089782,9.65691964 0.995868056,11.3176505 M2.91709821,18.0282655 C3.32705192,18.5040096 3.70544147,19.0109375 4.15152282,19.4497933 C6.12827546,21.3915592 8.49520668,22.4685433 11.2789368,22.5906167 C11.4306729,22.597462 11.5816485,22.6111524 11.7333846,22.6221809 C12.0448429,22.6449983 12.2703555,22.7693535 12.2505804,23.1222636 C12.2308052,23.4709904 12.0037715,23.5668237 11.6858482,23.567204 C10.1293171,23.5683449 8.63249173,23.2671544 7.20792163,22.6499421 C2.44705853,20.5861028 -0.34541832,15.9568204 0.0341121032,10.7863839 C0.431135913,5.38130787 4.78546792,0.795378638 10.1734309,0.107051918 C16.5779117,-0.710573743 22.2818965,3.44904927 23.409079,9.7770916 C23.520124,10.4019097 23.5269692,11.0457424 23.5741253,11.6812087 C23.5969428,11.9960896 23.4813343,12.2276868 23.1295651,12.2413773 C22.7789368,12.2543072 22.6519196,12.0364005 22.6408912,11.7180969 C22.5891716,10.168411 22.2811359,8.67995205 21.6509937,7.25348049 C21.4334673,6.76100364 21.1760103,6.53587136 20.6036723,6.57618221 C19.7582854,6.63550761 18.9056729,6.59139385 17.9751009,6.59139385 C18.0397503,6.82945602 18.0956531,7.01009425 18.1378654,7.19339451 C18.2047966,7.48659888 18.1146677,7.7098297 17.8127166,7.80071925 C17.5043006,7.89351025 17.3160565,7.72732308 17.2099554,7.46111938 C17.1000513,7.18502811 17.0913046,6.7754547 16.8943138,6.64995866 C16.6642378,6.50354663 16.2786227,6.5936756 15.9603191,6.59253472 C14.7612616,6.58949239 13.5614435,6.59139385 12.2889897,6.59139385 C12.2889897,6.82565311 12.2969759,7.03101025 12.2870883,7.23522652 C12.2718767,7.55276951 12.161212,7.82657903 11.7930903,7.82201554 C11.4261095,7.81745205 11.3219097,7.56113591 11.3264732,7.22724041 C11.3352199,6.55298446 11.4139401,6.5932953 10.6879646,6.59215443 C9.50183697,6.59025298 8.31570933,6.59177414 7.12920139,6.59177414 L6.62189319,6.59177414 C6.15185351,8.1365162 5.92443948,9.67365245 5.91265046,11.3206928 C6.18645999,11.3206928 6.43821263,11.3282986 6.6892047,11.3187913 C7.02576224,11.3058614 7.33379795,11.3670883 7.3402629,11.7709573 C7.34748843,12.2063905 7.02043816,12.2630539 6.66980985,12.2535466 C6.43136739,12.2467014 6.19254464,12.2520255 5.80883102,12.2520255 C5.99099041,13.532085 6.1606002,14.7288608 6.33363261,15.9244957 C6.35302745,16.059499 6.40398644,16.1891782 6.42414187,16.3241815 C6.49411541,16.7858548 6.68121858,17.0634673 7.22389385,16.970296 C7.53611276,16.9166749 7.82019015,17.0497768 7.83312004,17.4201802 C7.84566964,17.7856399 7.60418485,17.919122 7.26306382,17.9077133 C7.18966766,17.9054315 7.11551091,17.91646 6.94818287,17.9278687 C7.11817295,18.3252728 7.26534557,18.6785632 7.42126488,19.0280506 C7.48933697,19.1805473 7.57109954,19.326579 7.65438327,19.4714699 C7.82893684,19.7757027 7.78748512,20.0373429 7.47260417,20.2016286 C7.15772321,20.3666749 6.93715443,20.1845155 6.80557374,19.9186921 C6.5496379,19.4018767 6.28799769,18.8831597 6.0929084,18.3423859 C5.96627149,17.9928985 5.79133763,17.8856564 5.42968089,17.8985863 C4.61661872,17.9271081 3.80203538,17.907333 2.98859292,17.907333 C2.96463459,17.9476438 2.94105655,17.988335 2.91709821,18.0282655" id="Fill-1" fill="#000000" mask="url(#mask-2)"></path>
                </g>
                <g id="Group-6" transform="translate(8.746693, 9.122116)" fill="#000000">
                    <path d="M1.08071098,5.96638558 C1.07804894,8.7094246 3.25597553,10.9075066 5.97847884,10.9101687 C8.71733466,10.913211 10.9123743,8.73832672 10.9237831,6.01049934 C10.9351918,3.26936177 8.72075728,1.05302579 5.9758168,1.06025132 C3.2784127,1.06633598 1.08337302,3.26631944 1.08071098,5.96638558 M10.4974769,9.82709987 C11.6341667,10.955043 12.7548843,12.0673942 13.8756019,13.1797454 C14.1235516,13.4261739 14.3715013,13.6726025 14.6171693,13.9216931 C14.8449636,14.1536706 14.9472619,14.4191138 14.6867626,14.6777116 C14.4270238,14.9359292 14.1714683,14.8393353 13.9353075,14.602414 C12.625205,13.2892692 11.3116799,11.9799272 9.99891534,10.6690642 C9.94605489,10.616584 9.88939153,10.568287 9.8106713,10.4956515 C8.30053571,11.6810185 6.6055787,12.1430721 4.72047619,11.7350198 C3.24836971,11.4159557 2.06718585,10.6184854 1.19936177,9.38976521 C-0.514609788,6.96388889 -0.163220899,3.64813161 1.99911376,1.6698578 C4.2086045,-0.351388889 7.52588294,-0.424404762 9.79660053,1.4838955 C12.0327116,3.36367394 12.7666733,6.92852183 10.4974769,9.82709987" id="Fill-4"></path>
                </g>
            </g>
        </g>
    </g>
</svg>